<svg version="1.1" id="Layer_1" xmlns="http://www.w3.org/2000/svg" xmlns:xlink="http://www.w3.org/1999/xlink" x="0px" y="0px"
	 width="100%" viewBox="0 0 87 196" enable-background="new 0 0 87 196" xml:space="preserve">
<path fill="none" opacity="1.000000" stroke="none" 
	d="
M1.000000,73.000000 
	C1.000000,48.666668 1.000000,24.833340 1.000000,1.000006 
	C29.999994,1.000004 58.999989,1.000004 87.999985,1.000002 
	C87.999992,66.333321 87.999992,131.666641 88.000000,196.999969 
	C59.000019,196.999969 30.000034,196.999969 1.000026,196.999985 
	C1.000000,155.833328 1.000000,114.666664 1.000000,73.000000 
M34.147675,63.904434 
	C36.451927,63.940285 38.756184,63.976135 41.091328,64.836929 
	C41.035316,66.209702 40.979305,67.582474 40.455940,68.916916 
	C40.455940,68.916916 39.995510,68.828102 39.691959,68.423805 
	C39.374069,68.327705 39.056175,68.231606 37.919830,68.091949 
	C36.279808,68.060982 34.639790,68.030014 32.687210,67.552376 
	C32.108166,67.947479 31.529119,68.342583 30.187836,68.901810 
	C29.575712,67.531120 28.669344,66.214546 28.405504,64.779808 
	C27.543461,60.092064 23.414005,57.883667 19.999149,60.978134 
	C18.444317,62.387093 18.542669,65.620392 17.319178,68.327477 
	C15.855173,69.349800 14.391169,70.372131 12.264139,71.767120 
	C8.577132,74.267021 8.198091,78.144310 9.741643,81.487549 
	C12.159033,86.723503 16.791620,82.369125 20.699768,82.965416 
	C20.975908,86.927238 22.727238,89.808189 27.203741,88.944519 
	C29.866442,88.430801 32.371780,87.101471 35.253193,86.739151 
	C37.320580,87.998245 39.387970,89.257339 41.633423,90.624886 
	C38.474842,93.936874 40.156677,96.126823 43.380886,98.781685 
	C43.415333,107.187454 43.449783,115.593216 42.783882,124.068794 
	C36.899967,122.688904 34.440056,124.204796 32.888309,129.895233 
	C32.590427,130.987579 31.569500,131.882767 30.363783,133.144302 
	C30.048513,133.725327 29.758375,134.321747 29.413332,134.884506 
	C28.314283,136.677017 26.818068,138.359924 26.317686,140.302216 
	C26.171600,140.869247 28.719793,142.532486 30.249025,143.031952 
	C32.380009,143.727951 34.714092,143.802109 37.330463,144.682465 
	C38.971493,146.460297 40.612522,148.238129 42.125721,150.942535 
	C42.248714,163.261047 40.064304,175.598709 41.038094,187.910156 
	C41.731373,187.915771 42.424652,187.921387 43.117928,187.927002 
	C43.508644,175.382523 43.899361,162.838058 45.035191,150.213821 
	C46.830605,147.818161 48.626019,145.422501 51.019100,142.229370 
	C54.927303,142.874329 57.384556,140.001175 58.067711,134.972351 
	C58.149303,134.371750 58.710083,133.836243 59.874512,133.090973 
	C65.039597,132.267532 70.204689,131.444092 75.523582,130.596115 
	C75.165794,128.454575 75.214478,126.906319 74.629936,125.653511 
	C73.606056,123.459106 72.610229,120.815834 70.779579,119.605659 
	C69.766396,118.935883 66.492249,120.262665 65.276657,121.620201 
	C62.774704,124.414284 60.970730,127.833374 58.101704,131.129623 
	C55.685108,130.964752 54.681225,130.165649 55.126064,127.316849 
	C55.371719,125.743629 54.184544,123.475960 52.934059,122.237427 
	C50.298092,119.626694 47.793266,121.997482 45.289688,122.232330 
	C45.301662,119.926247 45.562027,117.588501 45.273026,115.320770 
	C44.701321,110.834732 46.649895,108.904381 51.129063,109.730377 
	C52.444859,111.145958 53.558769,113.456169 55.114769,113.807312 
	C59.562988,114.811111 63.093761,112.804871 65.117096,108.715515 
	C73.100601,112.046623 76.086563,111.484787 78.808327,106.061539 
	C79.430962,104.820915 80.081047,102.518150 79.492950,101.930321 
	C76.814377,99.252960 73.698494,97.013107 70.535469,94.450333 
	C70.516861,94.498833 70.655128,94.031799 70.867401,93.601250 
	C74.549126,86.133797 74.152710,84.913589 67.415054,80.258583 
	C66.199135,79.418526 65.646950,77.617805 65.235565,76.967537 
	C68.235397,75.781212 71.367912,75.485672 72.758446,73.774529 
	C74.920242,71.114296 74.934517,67.627213 72.136604,64.721252 
	C71.611511,64.175880 71.733147,63.027340 71.507904,62.169865 
	C70.965790,60.106094 70.394958,58.049858 70.102844,55.161560 
	C69.760216,52.302711 71.214661,48.709377 66.486343,47.145943 
	C65.652634,47.369034 64.818924,47.592125 63.580605,48.019482 
	C63.580605,48.019482 63.142864,48.137054 62.554806,47.752121 
	C62.247952,47.396854 61.941093,47.041588 61.742611,45.984264 
	C61.167236,44.509823 60.591862,43.035381 59.671944,41.247532 
	C59.377728,41.086975 59.073387,41.064945 58.258099,41.255554 
	C57.921581,41.238876 57.585064,41.222202 56.619881,41.068611 
	C56.075493,41.328892 55.531105,41.589172 54.450031,42.160877 
	C53.622372,42.770206 52.794712,43.379536 51.485615,44.287155 
	C51.383160,44.640617 51.280704,44.994083 51.198078,46.120796 
	C51.261578,47.406315 51.325077,48.691837 50.567364,49.987446 
	C48.807652,49.635071 47.047943,49.282692 45.077114,48.268417 
	C44.743404,47.184250 44.409691,46.100082 44.657608,44.617165 
	C45.374443,40.674252 49.128414,40.921837 51.694420,39.583370 
	C56.634602,37.006500 57.026890,35.581688 54.158638,30.326937 
	C54.181019,28.013338 59.193096,23.930305 51.447971,23.703743 
	C49.609196,22.108261 47.770420,20.512779 45.894882,18.133255 
	C44.855221,16.164515 43.815563,14.195774 42.775902,12.227034 
	C41.912376,14.160225 40.983349,16.068352 40.227821,18.042870 
	C40.018738,18.589294 40.325562,19.333122 40.198318,20.742809 
	C39.740627,22.656374 39.282936,24.569937 38.665703,27.150522 
	C36.578396,24.009602 35.084904,21.762238 34.042698,20.193951 
	C29.751232,24.635050 25.611963,28.925606 21.464363,33.208096 
	C19.203791,35.542191 19.054022,37.823311 21.307386,40.628239 
	C21.250202,40.831974 21.193016,41.035709 20.457794,41.173790 
	C19.634218,41.531704 18.810640,41.889622 17.256645,42.177200 
	C16.230410,44.130268 14.257954,46.175613 14.436960,48.011147 
	C14.626061,49.950191 16.524027,52.719624 18.280325,53.301853 
	C21.970694,54.525257 26.057077,54.554096 30.187895,55.673542 
	C30.466957,56.445351 30.746019,57.217163 30.516558,58.377750 
	C30.974037,59.259674 31.431517,60.141594 32.229435,61.527473 
	C32.806145,62.095547 33.382858,62.663624 34.147675,63.904434 
z"/>
<path fill="#FCEC58" opacity="1.000000" stroke="none" 
	d="
M40.923294,68.955246 
	C40.979305,67.582474 41.035316,66.209702 41.212597,64.399590 
	C41.333866,63.962254 41.582439,63.836918 41.705093,63.639652 
	C42.213203,62.964603 42.598663,62.486820 43.287857,61.973030 
	C47.563549,60.650211 51.466740,58.864979 55.538727,58.303162 
	C57.362503,58.051537 59.524620,60.252148 61.791985,61.480080 
	C62.568375,56.911652 65.339607,55.117447 69.835716,55.990585 
	C70.394958,58.049858 70.965790,60.106094 71.507904,62.169865 
	C71.733147,63.027340 71.611511,64.175880 72.136604,64.721252 
	C74.934517,67.627213 74.920242,71.114296 72.758446,73.774529 
	C71.367912,75.485672 68.235397,75.781212 65.235565,76.967537 
	C65.646950,77.617805 66.199135,79.418526 67.415054,80.258583 
	C74.152710,84.913589 74.549126,86.133797 70.867401,93.601250 
	C70.655128,94.031799 70.516861,94.498833 70.535469,94.450333 
	C73.698494,97.013107 76.814377,99.252960 79.492950,101.930321 
	C80.081047,102.518150 79.430962,104.820915 78.808327,106.061539 
	C76.086563,111.484787 73.100601,112.046623 65.117096,108.715515 
	C63.093761,112.804871 59.562988,114.811111 55.114769,113.807312 
	C53.558769,113.456169 52.444859,111.145958 51.101509,109.124176 
	C51.073956,108.517975 51.139896,108.062012 51.406296,107.864960 
	C53.486916,106.613083 55.301132,105.558266 57.115345,104.503441 
	C56.589474,103.940956 56.063602,103.378471 55.537731,102.815994 
	C52.141186,101.840851 48.744644,100.865715 45.264374,99.559776 
	C45.069004,98.556473 44.957359,97.883980 44.779083,96.863541 
	C44.480320,90.347618 46.802071,88.129654 52.559956,89.072174 
	C54.023495,89.311737 55.465309,89.683975 57.169357,90.109383 
	C58.401852,86.609314 60.083179,82.821526 54.956520,80.535217 
	C54.681423,80.183060 54.479122,80.032890 54.143784,79.566208 
	C53.965591,78.463409 53.887989,77.720833 53.902214,76.599503 
	C54.118061,74.530777 54.242081,72.840805 54.366104,71.150833 
	C52.685940,71.049721 50.991695,70.770065 49.329830,70.901077 
	C47.864048,71.016632 46.434406,71.590622 44.684593,71.886124 
	C43.586998,71.558998 42.793617,71.307922 41.978374,70.742516 
	C41.612106,69.937202 41.267696,69.446228 40.923294,68.955246 
M62.518425,93.989754 
	C62.518425,93.989754 62.061031,93.980721 61.597389,93.484993 
	C60.805660,95.430901 60.013931,97.376808 59.222202,99.322723 
	C59.670418,99.714905 60.118633,100.107079 60.566849,100.499260 
	C61.927387,99.558731 63.674343,98.861031 64.483215,97.573830 
	C64.879562,96.943108 63.533421,95.217415 62.518425,93.989754 
M59.181519,67.052994 
	C58.338650,70.981590 60.507107,72.413452 64.277367,72.983978 
	C64.277367,69.995872 64.277367,67.196724 64.277367,63.131058 
	C61.697250,64.931000 60.634453,65.672424 59.181519,67.052994 
z"/>
<path fill="#FCF073" opacity="1.000000" stroke="none" 
	d="
M45.931644,18.917299 
	C47.770420,20.512779 49.609196,22.108261 51.556606,24.213177 
	C50.551910,25.996862 49.438580,27.271114 47.820705,29.122837 
	C50.250546,29.872787 52.022602,30.419716 53.794655,30.966646 
	C57.026890,35.581688 56.634602,37.006500 51.694420,39.583370 
	C49.128414,40.921837 45.374443,40.674252 44.000397,44.846771 
	C41.715145,46.753716 40.056847,48.403114 38.471561,50.119938 
	C37.652435,51.007023 36.979172,52.027119 36.211334,52.963608 
	C34.782776,54.705959 33.333233,56.431107 31.677366,58.110966 
	C31.462307,58.058517 31.025082,57.988972 31.025082,57.988972 
	C30.746019,57.217163 30.466957,56.445351 29.987804,55.102730 
	C29.520966,54.025272 29.254215,53.518627 28.993458,53.006252 
	C28.999454,53.000519 29.008902,52.987919 29.267494,52.773018 
	C29.295254,50.924091 29.064419,49.290058 28.973705,48.647903 
	C25.713112,49.349728 22.644537,50.951965 20.454401,50.151306 
	C18.988729,49.615490 18.761000,45.669353 18.007236,43.240604 
	C17.912939,42.936760 17.989609,42.579857 17.987064,42.247536 
	C18.810640,41.889622 19.634218,41.531704 20.958212,41.377575 
	C21.846340,41.478626 22.234051,41.375896 22.621761,41.273163 
	C22.278654,40.869110 21.935547,40.465061 21.592438,40.061012 
	C19.054022,37.823311 19.203791,35.542191 21.464363,33.208096 
	C25.611963,28.925606 29.751232,24.635050 34.042698,20.193951 
	C35.084904,21.762238 36.578396,24.009602 38.665703,27.150522 
	C39.282936,24.569937 39.740627,22.656374 40.634384,20.300192 
	C42.690845,19.544149 44.311245,19.230724 45.931644,18.917299 
M30.615067,45.148052 
	C31.702944,43.252193 32.790821,41.356339 33.982109,39.280270 
	C28.465212,38.270306 27.026573,40.755688 26.900320,44.281403 
	C26.887489,44.639702 28.922966,45.071346 30.615067,45.148052 
M44.191643,31.222271 
	C41.963161,30.789558 39.734676,30.356844 37.506195,29.924129 
	C37.222672,30.602207 36.939144,31.280285 36.655621,31.958361 
	C38.758312,33.236885 40.861000,34.515408 42.963692,35.793930 
	C43.542244,34.471066 44.120792,33.148197 44.191643,31.222271 
z"/>
<path fill="#FBEC5B" opacity="1.000000" stroke="none" 
	d="
M40.689613,68.936081 
	C41.267696,69.446228 41.612106,69.937202 41.699612,70.861908 
	C41.234058,71.848511 41.025406,72.401390 40.667912,73.244980 
	C38.685532,75.402779 36.851997,77.269859 34.706757,79.125381 
	C34.562881,80.409149 34.730713,81.704483 34.924416,83.391342 
	C34.949486,84.568184 34.948677,85.353516 34.947868,86.138840 
	C32.371780,87.101471 29.866442,88.430801 27.203741,88.944519 
	C22.727238,89.808189 20.975908,86.927238 20.699768,82.965416 
	C16.791620,82.369125 12.159033,86.723503 9.741643,81.487549 
	C8.198091,78.144310 8.577132,74.267021 13.007846,71.716248 
	C15.648360,71.798042 17.545168,71.930710 20.452591,72.134048 
	C19.208483,70.138832 18.549822,69.082520 17.891161,68.026199 
	C18.542669,65.620392 18.444317,62.387093 19.999149,60.978134 
	C23.414005,57.883667 27.543461,60.092064 28.405504,64.779808 
	C28.669344,66.214546 29.575712,67.531120 30.861084,68.860687 
	C32.022812,68.546066 32.511288,68.272552 32.999767,67.999046 
	C34.639790,68.030014 36.279808,68.060982 38.479652,68.327072 
	C39.358154,68.650826 39.676834,68.739464 39.995510,68.828102 
	C39.995510,68.828102 40.455940,68.916916 40.689613,68.936081 
z"/>
<path fill="#FBEC5B" opacity="1.000000" stroke="none" 
	d="
M59.048752,133.270554 
	C58.710083,133.836243 58.149303,134.371750 58.067711,134.972351 
	C57.384556,140.001175 54.927303,142.874329 51.019100,142.229370 
	C48.626019,145.422501 46.830605,147.818161 44.337173,150.128937 
	C43.177288,150.034683 42.715416,150.025314 42.253548,150.015961 
	C40.612522,148.238129 38.971493,146.460297 37.174988,144.013519 
	C38.416744,137.225723 36.667488,134.239975 30.882137,132.868912 
	C31.569500,131.882767 32.590427,130.987579 32.888309,129.895233 
	C34.440056,124.204796 36.899967,122.688904 43.215595,124.383774 
	C43.869331,125.769661 44.091354,126.840576 44.313377,127.911491 
	C44.495201,127.904099 44.677021,127.896713 44.858845,127.889328 
	C45.021481,126.316185 45.184116,124.743042 45.346752,123.169899 
	C47.793266,121.997482 50.298092,119.626694 52.934059,122.237427 
	C54.184544,123.475960 55.371719,125.743629 55.126064,127.316849 
	C54.681225,130.165649 55.685108,130.964752 58.518105,131.440369 
	C58.972584,132.257599 59.010670,132.764084 59.048752,133.270554 
M42.418255,133.085251 
	C42.418255,134.665634 42.418255,136.246017 42.418255,138.705368 
	C47.054142,134.321167 47.257381,133.524155 46.090157,131.824326 
	C44.166042,129.022217 43.249420,130.462555 42.418255,133.085251 
z"/>
<path fill="#E8CA41" opacity="1.000000" stroke="none" 
	d="
M69.969284,55.576073 
	C65.339607,55.117447 62.568375,56.911652 61.791985,61.480080 
	C59.524620,60.252148 57.362503,58.051537 55.538727,58.303162 
	C51.466740,58.864979 47.563549,60.650211 43.267815,61.673210 
	C42.613884,60.948116 42.283733,60.486843 41.967182,59.642258 
	C43.328758,56.853226 44.676735,54.447502 46.394485,52.024353 
	C48.305698,51.330406 49.847137,50.653881 51.388577,49.977356 
	C51.325077,48.691837 51.261578,47.406315 51.396332,45.557510 
	C51.718739,44.659107 51.842896,44.323990 51.967056,43.988869 
	C52.794712,43.379536 53.622372,42.770206 55.023880,42.047752 
	C56.148003,41.691593 56.698277,41.448559 57.248547,41.205524 
	C57.585064,41.222202 57.921581,41.238876 58.684448,41.376259 
	C59.110802,41.496960 59.555111,41.650162 59.555111,41.650162 
	C59.555111,41.650162 60.016483,41.560940 60.016483,41.560940 
	C60.591862,43.035381 61.167236,44.509823 61.476196,46.550728 
	C60.923126,47.937016 60.636475,48.756836 59.914917,50.820480 
	C61.681473,49.351921 62.412167,48.744488 63.142864,48.137054 
	C63.142864,48.137054 63.580605,48.019482 64.160767,47.955750 
	C65.477989,47.745560 66.215050,47.599102 66.952118,47.452648 
	C71.214661,48.709377 69.760216,52.302711 69.969284,55.576073 
z"/>
<path fill="#E3CF5F" opacity="1.000000" stroke="none" 
	d="
M35.100533,86.438995 
	C34.948677,85.353516 34.949486,84.568184 35.201378,83.258232 
	C36.074894,82.214005 36.697323,81.694405 37.678764,81.145813 
	C38.997158,81.100578 39.956532,81.084335 41.101379,81.266258 
	C41.941383,81.389381 42.595917,81.314331 43.250450,81.239281 
	C42.887165,80.398689 42.523880,79.558105 42.200455,78.462021 
	C42.485748,77.767822 42.731182,77.329124 43.319088,76.890106 
	C44.505241,76.649666 45.348927,76.409554 46.554840,76.154922 
	C48.540470,76.461296 50.163872,76.782188 51.881184,77.385963 
	C52.731518,78.421379 53.487946,79.173904 54.244377,79.926430 
	C54.479122,80.032890 54.681423,80.183060 54.768158,80.841316 
	C53.466709,82.422211 52.248390,83.538734 51.407753,84.309128 
	C53.543751,86.513664 55.230427,88.254463 56.917103,89.995262 
	C55.465309,89.683975 54.023495,89.311737 52.559956,89.072174 
	C46.802071,88.129654 44.480320,90.347618 44.579315,96.907303 
	C44.095345,97.501968 43.744514,97.704926 43.393684,97.907883 
	C40.156677,96.126823 38.474842,93.936874 41.633423,90.624886 
	C39.387970,89.257339 37.320580,87.998245 35.100533,86.438995 
z"/>
<path fill="#E6C845" opacity="1.000000" stroke="none" 
	d="
M59.461632,133.180756 
	C59.010670,132.764084 58.972584,132.257599 58.907017,131.373199 
	C60.970730,127.833374 62.774704,124.414284 65.276657,121.620201 
	C66.492249,120.262665 69.766396,118.935883 70.779579,119.605659 
	C72.610229,120.815834 73.606056,123.459106 74.629936,125.653511 
	C75.214478,126.906319 75.165794,128.454575 75.523582,130.596115 
	C70.204689,131.444092 65.039597,132.267532 59.461632,133.180756 
z"/>
<path fill="#FCEC58" opacity="1.000000" stroke="none" 
	d="
M46.024712,52.041779 
	C44.676735,54.447502 43.328758,56.853226 41.723629,59.820896 
	C41.295383,60.956730 41.124283,61.530621 40.563637,62.127632 
	C38.102581,62.511070 36.031075,62.871384 33.959568,63.231697 
	C33.382858,62.663624 32.806145,62.095547 32.090492,60.917599 
	C31.931839,59.592953 31.912130,58.878185 31.892426,58.163414 
	C33.333233,56.431107 34.782776,54.705959 36.211334,52.963608 
	C36.979172,52.027119 37.652435,51.007023 38.471561,50.119938 
	C40.056847,48.403114 41.715145,46.753716 43.709579,45.046143 
	C44.409691,46.100082 44.743404,47.184250 45.175278,48.921928 
	C45.523861,50.397549 45.774284,51.219666 46.024712,52.041779 
z"/>
<path fill="#7C8549" opacity="1.000000" stroke="none" 
	d="
M42.189636,150.479248 
	C42.715416,150.025314 43.177288,150.034683 43.964615,150.168808 
	C43.899361,162.838058 43.508644,175.382523 43.117928,187.927002 
	C42.424652,187.921387 41.731373,187.915771 41.038094,187.910156 
	C40.064304,175.598709 42.248714,163.261047 42.189636,150.479248 
z"/>
<path fill="#E6C740" opacity="1.000000" stroke="none" 
	d="
M30.622959,133.006607 
	C36.667488,134.239975 38.416744,137.225723 36.990387,143.743484 
	C34.714092,143.802109 32.380009,143.727951 30.249025,143.031952 
	C28.719793,142.532486 26.171600,140.869247 26.317686,140.302216 
	C26.818068,138.359924 28.314283,136.677017 29.413332,134.884506 
	C29.758375,134.321747 30.048513,133.725327 30.622959,133.006607 
z"/>
<path fill="#F9EF6B" opacity="1.000000" stroke="none" 
	d="
M17.621855,42.212368 
	C17.989609,42.579857 17.912939,42.936760 18.007236,43.240604 
	C18.761000,45.669353 18.988729,49.615490 20.454401,50.151306 
	C22.644537,50.951965 25.713112,49.349728 28.973705,48.647903 
	C29.064419,49.290058 29.295254,50.924091 29.154816,52.532505 
	C28.439974,52.232315 28.096403,51.957745 27.752831,51.683170 
	C27.641125,51.889988 27.529419,52.096806 27.417709,52.303627 
	C27.940960,52.539745 28.464211,52.775867 28.987461,53.011986 
	C29.254215,53.518627 29.520966,54.025272 29.884308,54.802605 
	C26.057077,54.554096 21.970694,54.525257 18.280325,53.301853 
	C16.524027,52.719624 14.626061,49.950191 14.436960,48.011147 
	C14.257954,46.175613 16.230410,44.130268 17.621855,42.212368 
z"/>
<path fill="#717935" opacity="1.000000" stroke="none" 
	d="
M43.387283,98.344788 
	C43.744514,97.704926 44.095345,97.501968 44.645943,97.255249 
	C44.957359,97.883980 45.069004,98.556473 45.199482,100.013977 
	C45.218311,103.048141 45.218311,105.297295 45.218311,107.674690 
	C47.578266,107.829056 49.359081,107.945534 51.139896,108.062012 
	C51.139896,108.062012 51.073956,108.517975 51.027290,108.743637 
	C46.649895,108.904381 44.701321,110.834732 45.273026,115.320770 
	C45.562027,117.588501 45.301662,119.926247 45.318222,122.701111 
	C45.184116,124.743042 45.021481,126.316185 44.858845,127.889328 
	C44.677021,127.896713 44.495201,127.904099 44.313377,127.911491 
	C44.091354,126.840576 43.869331,125.769661 43.565769,124.348862 
	C43.449783,115.593216 43.415333,107.187454 43.387283,98.344788 
z"/>
<path fill="#CFD171" opacity="1.000000" stroke="none" 
	d="
M45.913261,18.525276 
	C44.311245,19.230724 42.690845,19.544149 40.733063,19.921976 
	C40.325562,19.333122 40.018738,18.589294 40.227821,18.042870 
	C40.983349,16.068352 41.912376,14.160225 42.775902,12.227034 
	C43.815563,14.195774 44.855221,16.164515 45.913261,18.525276 
z"/>
<path fill="#CACD6B" opacity="1.000000" stroke="none" 
	d="
M53.976646,30.646791 
	C52.022602,30.419716 50.250546,29.872787 47.820705,29.122837 
	C49.438580,27.271114 50.551910,25.996862 51.822498,24.452616 
	C59.193096,23.930305 54.181019,28.013338 53.976646,30.646791 
z"/>
<path fill="#FEFCDF" opacity="1.000000" stroke="none" 
	d="
M17.605169,68.176834 
	C18.549822,69.082520 19.208483,70.138832 20.452591,72.134048 
	C17.545168,71.930710 15.648360,71.798042 13.339359,71.529922 
	C14.391169,70.372131 15.855173,69.349800 17.605169,68.176834 
z"/>
<path fill="#FEF9D9" opacity="1.000000" stroke="none" 
	d="
M46.394485,52.024353 
	C45.774284,51.219666 45.523861,50.397549 45.280834,49.252876 
	C47.047943,49.282692 48.807652,49.635071 50.977970,49.982399 
	C49.847137,50.653881 48.305698,51.330406 46.394485,52.024353 
z"/>
<path fill="#FEFCDF" opacity="1.000000" stroke="none" 
	d="
M34.053619,63.568066 
	C36.031075,62.871384 38.102581,62.511070 40.609398,62.436272 
	C41.223953,63.093494 41.403194,63.465206 41.582439,63.836918 
	C41.582439,63.836918 41.333866,63.962254 41.197151,63.987122 
	C38.756184,63.976135 36.451927,63.940285 34.053619,63.568066 
z"/>
<path fill="#FDF4CA" opacity="1.000000" stroke="none" 
	d="
M62.848835,47.944588 
	C62.412167,48.744488 61.681473,49.351921 59.914917,50.820480 
	C60.636475,48.756836 60.923126,47.937016 61.422005,46.901756 
	C61.941093,47.041588 62.247952,47.396854 62.848835,47.944588 
z"/>
<path fill="#FEFCDF" opacity="1.000000" stroke="none" 
	d="
M31.677364,58.110966 
	C31.912130,58.878185 31.931839,59.592953 31.920271,60.665619 
	C31.431517,60.141594 30.974037,59.259674 30.770821,58.183361 
	C31.025082,57.988972 31.462307,58.058517 31.677364,58.110966 
z"/>
<path fill="#F9EF6B" opacity="1.000000" stroke="none" 
	d="
M21.449913,40.344627 
	C21.935547,40.465061 22.278654,40.869110 22.621761,41.273163 
	C22.234051,41.375896 21.846340,41.478626 21.297230,41.410400 
	C21.193016,41.035709 21.250202,40.831974 21.449913,40.344627 
z"/>
<path fill="#FEFCDF" opacity="1.000000" stroke="none" 
	d="
M32.843491,67.775711 
	C32.511288,68.272552 32.022812,68.546066 31.242203,68.778625 
	C31.529119,68.342583 32.108166,67.947479 32.843491,67.775711 
z"/>
<path fill="#FDF4CA" opacity="1.000000" stroke="none" 
	d="
M66.719231,47.299294 
	C66.215050,47.599102 65.477989,47.745560 64.363068,47.853615 
	C64.818924,47.592125 65.652634,47.369034 66.719231,47.299294 
z"/>
<path fill="#FDF4CA" opacity="1.000000" stroke="none" 
	d="
M56.934212,41.137070 
	C56.698277,41.448559 56.148003,41.691593 55.292225,41.892040 
	C55.531105,41.589172 56.075493,41.328892 56.934212,41.137070 
z"/>
<path fill="#FEF9D9" opacity="1.000000" stroke="none" 
	d="
M51.726334,44.138012 
	C51.842896,44.323990 51.718739,44.659107 51.386414,45.170887 
	C51.280704,44.994083 51.383160,44.640617 51.726334,44.138012 
z"/>
<path fill="#FEFCDF" opacity="1.000000" stroke="none" 
	d="
M39.843735,68.625954 
	C39.676834,68.739464 39.358154,68.650826 38.888882,68.348846 
	C39.056175,68.231606 39.374069,68.327705 39.843735,68.625954 
z"/>
<path fill="#FDF4CA" opacity="1.000000" stroke="none" 
	d="
M59.844215,41.404236 
	C60.016483,41.560940 59.555111,41.650162 59.555111,41.650162 
	C59.555111,41.650162 59.110802,41.496960 58.934860,41.339203 
	C59.073387,41.064945 59.377728,41.086975 59.844215,41.404236 
z"/>
<path fill="#F2F3DE" opacity="1.000000" stroke="none" 
	d="
M51.406296,107.864960 
	C49.359081,107.945534 47.578266,107.829056 45.218311,107.674690 
	C45.218311,105.297295 45.218311,103.048141 45.283203,100.344780 
	C48.744644,100.865715 52.141186,101.840851 55.537731,102.815994 
	C56.063602,103.378471 56.589474,103.940956 57.115345,104.503441 
	C55.301132,105.558266 53.486916,106.613083 51.406296,107.864960 
z"/>
<path fill="#FAF9E1" opacity="1.000000" stroke="none" 
	d="
M51.787277,77.103081 
	C50.163872,76.782188 48.540470,76.461296 46.254200,75.912613 
	C45.390491,74.443932 45.189648,73.203056 44.988804,71.962181 
	C46.434406,71.590622 47.864048,71.016632 49.329830,70.901077 
	C50.991695,70.770065 52.685940,71.049721 54.366104,71.150833 
	C54.242081,72.840805 54.118061,74.530777 53.566032,76.611771 
	C52.687778,77.036217 52.237526,77.069649 51.787277,77.103081 
z"/>
<path fill="#F1D944" opacity="1.000000" stroke="none" 
	d="
M59.376587,66.733429 
	C60.634453,65.672424 61.697250,64.931000 64.277367,63.131058 
	C64.277367,67.196724 64.277367,69.995872 64.277367,72.983978 
	C60.507107,72.413452 58.338650,70.981590 59.376587,66.733429 
z"/>
<path fill="#F9F6D3" opacity="1.000000" stroke="none" 
	d="
M57.169357,90.109383 
	C55.230427,88.254463 53.543751,86.513664 51.407753,84.309128 
	C52.248390,83.538734 53.466709,82.422211 54.873394,80.999588 
	C60.083179,82.821526 58.401852,86.609314 57.169357,90.109383 
z"/>
<path fill="#D9C744" opacity="1.000000" stroke="none" 
	d="
M62.975903,93.987282 
	C63.533421,95.217415 64.879562,96.943108 64.483215,97.573830 
	C63.674343,98.861031 61.927387,99.558731 60.566849,100.499260 
	C60.118633,100.107079 59.670418,99.714905 59.222202,99.322723 
	C60.013931,97.376808 60.805660,95.430901 61.679352,94.046829 
	C61.690063,95.802307 61.618820,96.995964 61.547577,98.189613 
	C62.023685,98.189842 62.499794,98.190071 62.975903,98.190292 
	C62.975903,96.789291 62.975903,95.388283 62.975903,93.987282 
z"/>
<path fill="#F4F3D6" opacity="1.000000" stroke="none" 
	d="
M44.684593,71.886124 
	C45.189648,73.203056 45.390491,74.443932 45.891975,75.927124 
	C45.348927,76.409554 44.505241,76.649666 43.323227,76.516205 
	C42.262184,75.079834 41.539471,74.017052 40.816757,72.954269 
	C41.025406,72.401390 41.234058,71.848511 41.721474,71.176239 
	C42.793617,71.307922 43.586998,71.558998 44.684593,71.886124 
z"/>
<path fill="#F3E352" opacity="1.000000" stroke="none" 
	d="
M62.747162,93.988518 
	C62.975903,95.388283 62.975903,96.789291 62.975903,98.190292 
	C62.499794,98.190071 62.023685,98.189842 61.547577,98.189613 
	C61.618820,96.995964 61.690063,95.802307 61.911171,94.294693 
	C62.061031,93.980721 62.518425,93.989754 62.747162,93.988518 
z"/>
<path fill="#F9F6D3" opacity="1.000000" stroke="none" 
	d="
M51.881184,77.385963 
	C52.237526,77.069649 52.687778,77.036217 53.474205,76.990524 
	C53.887989,77.720833 53.965591,78.463409 54.143784,79.566208 
	C53.487946,79.173904 52.731518,78.421379 51.881184,77.385963 
z"/>
<path fill="#FBEC5B" opacity="1.000000" stroke="none" 
	d="
M41.705093,63.639652 
	C41.403194,63.465206 41.223953,63.093494 40.998947,62.413147 
	C41.124283,61.530621 41.295383,60.956730 41.710033,60.204205 
	C42.283733,60.486843 42.613884,60.948116 42.964073,61.709213 
	C42.598663,62.486820 42.213203,62.964603 41.705093,63.639652 
z"/>
<path fill="#EDD549" opacity="1.000000" stroke="none" 
	d="
M30.311491,45.308502 
	C28.922966,45.071346 26.887489,44.639702 26.900320,44.281403 
	C27.026573,40.755688 28.465212,38.270306 33.982109,39.280270 
	C32.790821,41.356339 31.702944,43.252193 30.311491,45.308502 
z"/>
<path fill="#EADB5C" opacity="1.000000" stroke="none" 
	d="
M44.445496,31.523802 
	C44.120792,33.148197 43.542244,34.471066 42.963692,35.793930 
	C40.861000,34.515408 38.758312,33.236885 36.655621,31.958361 
	C36.939144,31.280285 37.222672,30.602207 37.506195,29.924129 
	C39.734676,30.356844 41.963161,30.789558 44.445496,31.523802 
z"/>
<path fill="#FAF9E1" opacity="1.000000" stroke="none" 
	d="
M40.667915,73.244980 
	C41.539471,74.017052 42.262184,75.079834 42.980759,76.516525 
	C42.731182,77.329124 42.485748,77.767822 42.129242,78.805466 
	C41.650753,79.958961 41.283333,80.513527 40.915909,81.068085 
	C39.956532,81.084335 38.997158,81.100578 37.334969,81.071945 
	C36.094254,80.397018 35.556358,79.766983 35.018463,79.136940 
	C36.851997,77.269859 38.685532,75.402779 40.667915,73.244980 
z"/>
<path fill="#F4F3D6" opacity="1.000000" stroke="none" 
	d="
M34.706757,79.125381 
	C35.556358,79.766983 36.094254,80.397018 36.975952,81.100937 
	C36.697323,81.694405 36.074894,82.214005 35.175503,82.866714 
	C34.730713,81.704483 34.562881,80.409149 34.706757,79.125381 
z"/>
<path fill="#EDD645" opacity="1.000000" stroke="none" 
	d="
M42.341545,132.761871 
	C43.249420,130.462555 44.166042,129.022217 46.090157,131.824326 
	C47.257381,133.524155 47.054142,134.321167 42.418255,138.705368 
	C42.418255,136.246017 42.418255,134.665634 42.341545,132.761871 
z"/>
<path fill="#F4F3D6" opacity="1.000000" stroke="none" 
	d="
M41.101379,81.266258 
	C41.283333,80.513527 41.650753,79.958961 42.089382,79.060959 
	C42.523880,79.558105 42.887165,80.398689 43.250450,81.239281 
	C42.595917,81.314331 41.941383,81.389381 41.101379,81.266258 
z"/>
<path fill="#FCF073" opacity="1.000000" stroke="none" 
	d="
M28.993458,53.006256 
	C28.464211,52.775867 27.940960,52.539745 27.417709,52.303627 
	C27.529419,52.096806 27.641125,51.889988 27.752831,51.683170 
	C28.096403,51.957745 28.439974,52.232315 28.896225,52.747406 
	C29.008902,52.987919 28.999454,53.000519 28.993458,53.006256 
z"/>
</svg>