<svg version="1.1" id="Layer_1" xmlns="http://www.w3.org/2000/svg" xmlns:xlink="http://www.w3.org/1999/xlink" x="0px" y="0px"
	 width="100%" viewBox="0 0 100 155" enable-background="new 0 0 100 155" xml:space="preserve">
<path fill="none" opacity="1.000000" stroke="none" 
	d="
M101.000000,62.000000 
	C101.000000,93.666664 101.000000,124.833336 101.000000,156.000000 
	C67.666664,156.000000 34.333332,156.000000 1.000000,156.000000 
	C1.000000,104.333336 1.000000,52.666668 1.000000,1.000000 
	C34.333332,1.000000 67.666664,1.000000 101.000000,1.000000 
	C101.000000,21.166666 101.000000,41.333332 101.000000,62.000000 
M35.518734,89.802315 
	C35.774086,89.595650 35.935295,89.331512 35.999287,89.000000 
	C35.999287,89.000000 36.008190,89.003006 36.739967,89.014175 
	C41.762814,89.980835 43.734756,93.914108 45.961124,98.605164 
	C48.224945,99.814781 50.488766,101.024391 52.843250,103.030655 
	C52.304821,105.131447 51.766392,107.232239 51.050133,108.589600 
	C48.946346,107.454720 46.842556,106.319832 44.133526,104.875687 
	C42.298466,103.793076 40.536877,102.552788 38.614700,101.657120 
	C32.603317,98.856026 32.075119,99.234756 31.768778,106.520226 
	C33.578251,106.900917 35.449253,107.519081 37.352352,107.642532 
	C40.236267,107.829605 43.142502,107.672623 46.082848,108.147911 
	C45.703316,109.354950 45.323784,110.561996 44.349747,112.227608 
	C43.584396,113.455528 42.164116,114.694099 42.183884,115.909248 
	C42.231678,118.847343 42.057777,121.122543 39.267712,123.118423 
	C38.557926,123.626167 39.739254,129.118256 40.876507,129.444458 
	C44.874943,130.591339 49.233326,130.724213 53.453388,130.710495 
	C54.716892,130.706390 55.974754,128.965637 57.649967,128.831635 
	C58.809013,134.455902 59.968063,140.080154 61.127110,145.704422 
	C61.655643,145.615143 62.184181,145.525879 62.712715,145.436600 
	C61.440376,138.026123 60.168037,130.615646 59.517509,122.797089 
	C62.443813,119.974373 60.463223,117.491653 59.382523,114.435555 
	C62.117973,112.638763 64.853424,110.841972 67.584587,109.047997 
	C65.315491,104.965210 60.643887,102.834938 56.306664,103.916817 
	C55.855076,102.871246 55.403484,101.825668 55.301346,100.259979 
	C55.850670,99.982910 56.630482,99.319771 56.913517,99.488739 
	C59.617687,101.103172 62.995617,101.292450 64.030518,98.620262 
	C64.810158,96.607170 62.792927,93.510895 62.013500,90.202721 
	C62.026306,89.509010 62.039108,88.815292 62.299660,87.643715 
	C62.595352,87.449684 62.891045,87.255646 63.873192,87.027359 
	C66.249939,85.178787 68.626694,83.330208 71.663628,81.141327 
	C75.793427,78.870285 79.894890,76.568398 82.314110,71.866783 
	C79.617645,70.095039 77.301880,68.573433 74.938141,66.416344 
	C74.133621,65.592522 73.329102,64.768700 72.296440,63.240196 
	C71.598312,61.506775 70.900185,59.773354 70.909821,58.025356 
	C71.943916,57.378838 72.978012,56.732315 74.523026,55.701488 
	C75.655090,55.121674 76.787155,54.541855 78.589737,53.915295 
	C78.497894,52.931026 78.406044,51.946758 78.105995,50.173805 
	C77.010765,48.454559 75.989906,46.681160 74.792358,45.036419 
	C74.076065,44.052647 73.083138,43.270298 72.214554,42.397411 
	C75.087753,40.279224 71.819313,38.473221 71.935112,36.512802 
	C72.021362,35.052441 71.885948,33.192570 72.700371,32.233017 
	C75.297272,29.173346 73.939606,27.493269 71.569504,25.221666 
	C71.685783,24.571882 72.103752,23.768286 71.864807,23.299603 
	C70.952011,21.509199 69.827736,19.826616 68.782440,18.103769 
	C68.208298,19.760822 67.560394,21.397774 67.100304,23.085911 
	C66.940849,23.670952 67.247292,24.382975 66.848091,25.585569 
	C66.529106,25.959490 66.210121,26.333410 65.332275,26.384668 
	C64.906235,26.358395 64.480202,26.332123 63.851486,25.605013 
	C63.235928,24.068666 62.620369,22.532320 62.097874,20.143286 
	C61.638840,17.995527 62.788002,14.348171 58.456631,15.031897 
	C58.840900,13.949197 59.561626,12.857403 59.532661,11.785873 
	C59.486137,10.064947 58.943848,8.357422 58.611053,6.644234 
	C57.512058,7.776362 56.358631,8.861616 55.330860,10.055083 
	C54.470547,11.054105 53.785828,13.075805 52.973862,13.101851 
	C48.144550,13.256771 50.136196,15.797139 50.675400,18.618719 
	C48.821327,19.696787 46.967255,20.774855 45.067295,21.115309 
	C43.989407,18.998112 42.911518,16.880915 41.569141,14.244207 
	C37.273739,18.622541 40.225899,20.719954 41.986504,23.800690 
	C41.767544,25.891991 41.548580,27.983292 41.035820,30.702518 
	C39.682991,31.786715 38.330158,32.870911 36.272160,34.081562 
	C33.645214,37.392910 31.018270,40.704258 27.902889,44.631298 
	C23.918091,43.777599 23.435978,48.008221 23.110373,51.208160 
	C22.924301,53.036823 24.957514,55.091312 26.142286,57.368645 
	C26.426722,57.318291 26.711157,57.267937 27.730566,57.127953 
	C29.133007,57.548271 30.535446,57.968586 32.081295,59.046078 
	C33.327763,61.372776 34.574234,63.699478 35.883873,66.689690 
	C35.600853,67.268051 35.317837,67.846420 34.333046,68.189217 
	C32.362110,69.378258 30.391174,70.567299 28.422470,71.754990 
	C26.104633,67.358719 23.788401,66.905685 20.259502,70.211899 
	C16.337217,73.886673 17.210037,76.266487 23.618425,79.455437 
	C23.618425,79.455437 23.743092,79.640663 23.100666,79.913376 
	C21.953600,80.571617 20.488127,80.982788 19.738241,81.949211 
	C18.750463,83.222221 17.366753,85.698730 17.848488,86.300323 
	C19.004993,87.744568 21.081619,88.581795 22.933090,89.271980 
	C23.615398,89.526337 24.708015,88.680008 25.916069,88.220657 
	C27.361015,92.686409 30.518818,92.302437 34.419350,90.827042 
	C34.705650,90.654724 34.910069,90.413124 35.031097,90.024117 
	C35.031097,90.024117 35.108536,90.034515 35.518734,89.802315 
M80.850395,104.393852 
	C80.122299,100.205872 77.137924,100.046638 74.177628,101.223976 
	C71.779175,102.177864 70.047791,104.191742 71.812592,107.153282 
	C74.469940,111.612625 76.646553,111.793610 82.677170,107.951828 
	C82.115204,107.012177 81.548195,106.064095 80.850395,104.393852 
z"/>
<path fill="#FCEC59" opacity="1.000000" stroke="none" 
	d="
M62.004810,20.995972 
	C62.620369,22.532320 63.235928,24.068666 63.993034,26.189714 
	C64.720100,26.752054 65.305618,26.729692 65.891136,26.707331 
	C66.210121,26.333410 66.529106,25.959490 67.381638,25.311745 
	C68.988037,25.356300 70.060890,25.674679 71.133751,25.993057 
	C73.939606,27.493269 75.297272,29.173346 72.700371,32.233017 
	C71.885948,33.192570 72.021362,35.052441 71.935112,36.512802 
	C71.819313,38.473221 75.087753,40.279224 72.214554,42.397411 
	C73.083138,43.270298 74.076065,44.052647 74.792358,45.036419 
	C75.989906,46.681160 77.010765,48.454559 78.121704,50.937683 
	C78.064690,52.455051 77.991959,53.208546 77.919220,53.962036 
	C76.787155,54.541855 75.655090,55.121674 73.924377,55.870911 
	C72.284500,56.706867 71.243279,57.373398 70.202057,58.039932 
	C70.900185,59.773354 71.598312,61.506775 72.226433,63.931026 
	C70.494469,65.763474 68.832512,66.905083 67.040672,68.135918 
	C69.103294,70.740883 68.751457,73.478653 65.535217,75.737144 
	C61.045918,78.889587 60.326237,73.641457 57.961163,72.059753 
	C57.868374,72.502823 57.775585,72.945892 57.682796,73.388969 
	C55.408833,73.029686 53.134869,72.670410 50.900818,71.908875 
	C50.620564,69.991928 50.300396,68.477249 50.211571,66.701706 
	C52.030933,65.213562 53.522572,63.823345 55.236778,62.809414 
	C56.666138,61.963966 58.328556,61.464424 59.940662,60.992374 
	C61.087757,60.656494 62.864525,61.029991 63.380424,60.346889 
	C64.015312,59.506222 64.023254,57.742546 63.596230,56.654995 
	C62.958866,55.031750 61.704784,53.650665 60.560978,51.938942 
	C59.182423,52.730568 58.078701,53.364368 56.764740,53.899414 
	C56.287979,53.621292 56.102009,53.379879 56.037601,52.703663 
	C56.558334,51.478268 57.545597,50.535831 57.413891,49.791359 
	C57.124496,48.155590 56.517979,45.467499 55.596378,45.268578 
	C53.230263,44.757874 48.718243,44.760117 48.436886,45.638130 
	C47.161179,49.619194 44.704788,49.142319 41.453979,48.635010 
	C42.226398,45.651180 41.905514,43.315193 37.767082,43.814636 
	C38.361984,42.738632 39.187389,41.847530 40.380360,41.005985 
	C44.239285,42.281750 48.173710,45.537128 50.129841,38.729172 
	C52.044086,36.820126 53.714516,35.102093 55.591232,33.650822 
	C58.676403,31.265057 60.055080,28.824780 56.182903,25.747177 
	C58.275650,24.039307 60.140228,22.517639 62.004810,20.995972 
M63.486477,46.339954 
	C62.310303,47.183666 61.134132,48.027378 58.929489,49.608845 
	C61.914227,50.606201 63.527321,51.370823 65.213631,51.602440 
	C65.931396,51.701027 67.352921,50.790825 67.476685,50.150154 
	C67.670074,49.149044 67.281448,47.801956 66.656433,46.959930 
	C66.252319,46.415501 64.986526,46.510662 63.486477,46.339954 
M61.495678,64.012054 
	C60.351147,64.266945 59.206615,64.521835 58.062088,64.776733 
	C58.539864,66.051620 58.696346,67.710815 59.604919,68.470421 
	C60.243156,69.004005 61.905663,68.312454 63.110786,68.167984 
	C62.814034,66.851273 62.517281,65.534561 61.495678,64.012054 
z"/>
<path fill="#E4C643" opacity="1.000000" stroke="none" 
	d="
M33.964588,90.987137 
	C30.518818,92.302437 27.361015,92.686409 25.916069,88.220657 
	C24.708015,88.680008 23.615398,89.526337 22.933090,89.271980 
	C21.081619,88.581795 19.004993,87.744568 17.848488,86.300323 
	C17.366753,85.698730 18.750463,83.222221 19.738241,81.949211 
	C20.488127,80.982788 21.953600,80.571617 23.640011,80.105736 
	C26.451757,81.353058 29.219044,84.640564 30.214947,78.885391 
	C30.405378,78.411819 30.389439,78.058792 30.373497,77.705772 
	C30.246098,78.134232 30.118698,78.562683 29.715065,78.798523 
	C27.085642,75.131493 25.492105,78.710625 23.569899,79.237968 
	C17.210037,76.266487 16.337217,73.886673 20.259502,70.211899 
	C23.788401,66.905685 26.104633,67.358719 28.422470,71.754990 
	C30.391174,70.567299 32.362110,69.378258 34.874756,68.562729 
	C37.584282,70.507401 40.790321,71.284042 40.041462,75.419266 
	C37.758759,77.547340 35.527843,79.303749 33.046745,81.257126 
	C34.597351,82.345497 36.126286,83.418655 37.620350,84.467339 
	C37.041553,86.095734 36.524872,87.549370 36.008190,89.003006 
	C36.008190,89.003006 35.999287,89.000000 35.786301,89.110519 
	C35.308765,89.429558 35.153843,89.700714 35.108536,90.034515 
	C35.108536,90.034515 35.031097,90.024117 34.793671,90.125839 
	C34.248249,90.394447 34.051029,90.647636 33.964588,90.987137 
z"/>
<path fill="#F9EA5B" opacity="1.000000" stroke="none" 
	d="
M52.752586,102.234009 
	C50.488766,101.024391 48.224945,99.814781 45.839638,97.907120 
	C45.103355,94.965309 44.351574,92.747810 43.914860,90.469910 
	C43.529682,88.460831 42.787773,86.058380 43.531960,84.440880 
	C44.125668,83.150444 46.734745,82.810974 48.421173,81.991653 
	C49.651867,81.393745 50.836926,80.701904 52.443214,80.014084 
	C57.467232,80.622017 62.294243,80.970177 63.186737,87.061615 
	C62.891045,87.255646 62.595352,87.449684 61.876846,87.985229 
	C61.078892,88.952797 60.703751,89.578850 60.328606,90.204903 
	C60.892620,90.435524 61.456635,90.666145 62.020653,90.896767 
	C62.792927,93.510895 64.810158,96.607170 64.030518,98.620262 
	C62.995617,101.292450 59.617687,101.103172 56.913517,99.488739 
	C56.630482,99.319771 55.850670,99.982910 54.789383,100.582222 
	C53.769142,101.347649 53.260864,101.790825 52.752586,102.234009 
M57.259052,91.299461 
	C55.128639,90.380898 52.998222,89.462341 50.867805,88.543777 
	C50.458618,89.312874 50.049431,90.081970 49.640244,90.851067 
	C51.268494,91.897034 52.791706,93.353081 54.571125,93.808846 
	C55.409252,94.023521 56.739517,92.316811 57.259052,91.299461 
z"/>
<path fill="#FBEC5C" opacity="1.000000" stroke="none" 
	d="
M58.975510,114.974777 
	C60.463223,117.491653 62.443813,119.974373 58.856064,122.969009 
	C53.398460,123.887321 58.702522,126.619614 57.235199,128.020523 
	C55.974754,128.965637 54.716892,130.706390 53.453388,130.710495 
	C49.233326,130.724213 44.874943,130.591339 40.876507,129.444458 
	C39.739254,129.118256 38.557926,123.626167 39.267712,123.118423 
	C42.057777,121.122543 42.231678,118.847343 42.183884,115.909248 
	C42.164116,114.694099 43.584396,113.455528 45.020164,112.011162 
	C51.720669,109.209579 50.505543,114.638145 51.348827,117.696053 
	C52.849812,116.547028 53.886658,115.753311 55.328720,114.969002 
	C56.814461,114.977203 57.894985,114.975990 58.975510,114.974777 
z"/>
<path fill="#FCEF6F" opacity="1.000000" stroke="none" 
	d="
M62.051342,20.569630 
	C60.140228,22.517639 58.275650,24.039307 56.182903,25.747177 
	C60.055080,28.824780 58.676403,31.265057 55.591232,33.650822 
	C53.714516,35.102093 52.044086,36.820126 49.777702,38.686947 
	C47.519894,37.952522 45.765381,36.949482 44.012054,35.557678 
	C43.118698,33.470810 42.224159,31.772699 41.329620,30.074593 
	C41.548580,27.983292 41.767544,25.891991 42.363182,23.382082 
	C43.530964,22.593288 44.322071,22.223104 45.113178,21.852921 
	C46.967255,20.774855 48.821327,19.696787 51.175621,18.262569 
	C53.865101,17.274248 56.054352,16.642075 58.243607,16.009903 
	C62.788002,14.348171 61.638840,17.995527 62.051342,20.569630 
z"/>
<path fill="#FBEA57" opacity="1.000000" stroke="none" 
	d="
M40.012794,40.956425 
	C39.187389,41.847530 38.361984,42.738632 37.773033,44.200047 
	C38.325081,48.069996 38.640663,51.369633 38.612194,54.795807 
	C36.158054,56.077858 34.047970,57.233379 31.937887,58.388901 
	C30.535446,57.968586 29.133007,57.548271 27.120174,57.082253 
	C26.337019,57.039082 26.164255,57.041603 25.991493,57.044121 
	C24.957514,55.091312 22.924301,53.036823 23.110373,51.208160 
	C23.435978,48.008221 23.918091,43.777599 27.902889,44.631298 
	C31.018270,40.704258 33.645214,37.392910 36.857231,34.297424 
	C39.783669,35.174442 42.511147,35.443493 41.697861,39.002861 
	C40.934677,39.655045 40.473736,40.305733 40.012794,40.956425 
z"/>
<path fill="#FAF9E5" opacity="1.000000" stroke="none" 
	d="
M63.529964,87.044487 
	C62.294243,80.970177 57.467232,80.622017 52.373543,79.660500 
	C50.840771,77.504845 49.778561,75.664940 48.805077,73.535019 
	C49.549503,72.933716 50.205204,72.622429 50.860905,72.311134 
	C53.134869,72.670410 55.408833,73.029686 57.682796,73.388969 
	C57.775585,72.945892 57.868374,72.502823 57.961163,72.059753 
	C60.326237,73.641457 61.045918,78.889587 65.535217,75.737144 
	C68.751457,73.478653 69.103294,70.740883 67.040672,68.135918 
	C68.832512,66.905083 70.494469,65.763474 72.340500,64.283371 
	C73.329102,64.768700 74.133621,65.592522 74.608727,66.796890 
	C70.220566,71.266068 69.406601,76.097801 71.003448,81.481644 
	C68.626694,83.330208 66.249939,85.178787 63.529964,87.044487 
z"/>
<path fill="#F8EA62" opacity="1.000000" stroke="none" 
	d="
M50.900818,71.908875 
	C50.205204,72.622429 49.549503,72.933716 48.519943,73.732185 
	C45.461803,74.495438 42.777523,74.771515 40.093246,75.047592 
	C40.790321,71.284042 37.584282,70.507401 35.225643,68.680511 
	C35.317837,67.846420 35.600853,67.268051 35.938988,66.013947 
	C35.512909,60.455376 40.003872,63.220432 41.873585,61.497337 
	C42.193516,60.130123 42.557209,58.575890 43.293488,56.980202 
	C45.110126,56.625629 46.554188,56.312511 48.007362,56.233932 
	C48.016479,56.468475 48.018219,56.937897 47.857246,57.268890 
	C43.871677,61.839478 46.913883,64.403961 49.980225,66.962563 
	C50.300396,68.477249 50.620564,69.991928 50.900818,71.908875 
z"/>
<path fill="#FAFAEA" opacity="1.000000" stroke="none" 
	d="
M40.041462,75.419266 
	C42.777523,74.771515 45.461803,74.495438 48.431217,74.022194 
	C49.778561,75.664940 50.840771,77.504845 51.972656,79.698349 
	C50.836926,80.701904 49.651867,81.393745 48.421173,81.991653 
	C46.734745,82.810974 44.125668,83.150444 43.531960,84.440880 
	C42.787773,86.058380 43.529682,88.460831 43.914860,90.469910 
	C44.351574,92.747810 45.103355,94.965309 45.615387,97.622581 
	C43.734756,93.914108 41.762814,89.980835 36.374077,89.008591 
	C36.524872,87.549370 37.041553,86.095734 37.620350,84.467339 
	C36.126286,83.418655 34.597351,82.345497 33.046745,81.257126 
	C35.527843,79.303749 37.758759,77.547340 40.041462,75.419266 
z"/>
<path fill="#FBED65" opacity="1.000000" stroke="none" 
	d="
M71.333542,81.311485 
	C69.406601,76.097801 70.220566,71.266068 74.632713,67.114632 
	C77.301880,68.573433 79.617645,70.095039 82.314110,71.866783 
	C79.894890,76.568398 75.793427,78.870285 71.333542,81.311485 
z"/>
<path fill="#E2C644" opacity="1.000000" stroke="none" 
	d="
M59.179016,114.705170 
	C57.894985,114.975990 56.814461,114.977203 55.302208,114.628418 
	C54.567772,112.945564 54.265060,111.612701 54.310349,110.159729 
	C55.420231,108.080193 56.182114,106.120766 56.943996,104.161331 
	C60.643887,102.834938 65.315491,104.965210 67.584587,109.047997 
	C64.853424,110.841972 62.117973,112.638763 59.179016,114.705170 
z"/>
<path fill="#FAEC67" opacity="1.000000" stroke="none" 
	d="
M80.915787,104.754936 
	C81.548195,106.064095 82.115204,107.012177 82.677170,107.951828 
	C76.646553,111.793610 74.469940,111.612625 71.812592,107.153282 
	C70.047791,104.191742 71.779175,102.177864 74.177628,101.223976 
	C77.137924,100.046638 80.122299,100.205872 80.915787,104.754936 
z"/>
<path fill="#C5C967" opacity="1.000000" stroke="none" 
	d="
M46.039253,107.661812 
	C43.142502,107.672623 40.236267,107.829605 37.352352,107.642532 
	C35.449253,107.519081 33.578251,106.900917 31.768778,106.520226 
	C32.075119,99.234756 32.603317,98.856026 38.614700,101.657120 
	C40.536877,102.552788 42.298466,103.793076 44.660583,105.314476 
	C45.471512,106.389450 45.755383,107.025627 46.039253,107.661812 
z"/>
<path fill="#F7F6E2" opacity="1.000000" stroke="none" 
	d="
M42.920902,57.021660 
	C42.557209,58.575890 42.193516,60.130123 41.873585,61.497337 
	C40.003872,63.220432 35.512909,60.455376 35.907402,65.682190 
	C34.574234,63.699478 33.327763,61.372776 32.009590,58.717491 
	C34.047970,57.233379 36.158054,56.077858 38.915260,54.940235 
	C40.681889,55.645973 41.801395,56.333817 42.920902,57.021660 
z"/>
<path fill="#BCBE4C" opacity="1.000000" stroke="none" 
	d="
M58.350121,15.520900 
	C56.054352,16.642075 53.865101,17.274248 51.338387,17.962685 
	C50.136196,15.797139 48.144550,13.256771 52.973862,13.101851 
	C53.785828,13.075805 54.470547,11.054105 55.330860,10.055083 
	C56.358631,8.861616 57.512058,7.776362 58.611053,6.644234 
	C58.943848,8.357422 59.486137,10.064947 59.532661,11.785873 
	C59.561626,12.857403 58.840900,13.949197 58.350121,15.520900 
z"/>
<path fill="#858C51" opacity="1.000000" stroke="none" 
	d="
M57.442581,128.426086 
	C58.702522,126.619614 53.398460,123.887321 58.545158,123.173050 
	C60.168037,130.615646 61.440376,138.026123 62.712715,145.436600 
	C62.184181,145.525879 61.655643,145.615143 61.127110,145.704422 
	C59.968063,140.080154 58.809013,134.455902 57.442581,128.426086 
z"/>
<path fill="#FAF8DA" opacity="1.000000" stroke="none" 
	d="
M46.061050,107.904861 
	C45.755383,107.025627 45.471512,106.389450 44.963203,105.469109 
	C46.842556,106.319832 48.946346,107.454720 51.407867,109.051292 
	C52.497852,109.768600 53.230099,110.024223 53.962349,110.279839 
	C54.265060,111.612701 54.567772,112.945564 54.896992,114.619003 
	C53.886658,115.753311 52.849812,116.547028 51.348827,117.696053 
	C50.505543,114.638145 51.720669,109.209579 45.317417,111.781876 
	C45.323784,110.561996 45.703316,109.354950 46.061050,107.904861 
z"/>
<path fill="#CCCE71" opacity="1.000000" stroke="none" 
	d="
M71.351624,25.607363 
	C70.060890,25.674679 68.988037,25.356300 67.628052,25.037460 
	C67.247292,24.382975 66.940849,23.670952 67.100304,23.085911 
	C67.560394,21.397774 68.208298,19.760822 68.782440,18.103769 
	C69.827736,19.826616 70.952011,21.509199 71.864807,23.299603 
	C72.103752,23.768286 71.685783,24.571882 71.351624,25.607363 
z"/>
<path fill="#FDF7AE" opacity="1.000000" stroke="none" 
	d="
M45.090237,21.484116 
	C44.322071,22.223104 43.530964,22.593288 42.416470,22.987631 
	C40.225899,20.719954 37.273739,18.622541 41.569141,14.244207 
	C42.911518,16.880915 43.989407,18.998112 45.090237,21.484116 
z"/>
<path fill="#F2E556" opacity="1.000000" stroke="none" 
	d="
M42.000099,39.001369 
	C42.511147,35.443493 39.783669,35.174442 37.209816,34.234192 
	C38.330158,32.870911 39.682991,31.786715 41.182720,30.388554 
	C42.224159,31.772699 43.118698,33.470810 44.008522,35.885422 
	C43.335899,37.401737 42.667999,38.201553 42.000099,39.001369 
M41.593021,33.510368 
	C41.593021,33.510368 41.480579,33.578117 41.593021,33.510368 
z"/>
<path fill="#8E934E" opacity="1.000000" stroke="none" 
	d="
M54.310349,110.159729 
	C53.230099,110.024223 52.497852,109.768600 51.496780,109.423004 
	C51.766392,107.232239 52.304821,105.131447 52.797920,102.632332 
	C53.260864,101.790825 53.769142,101.347649 54.614655,100.842285 
	C55.403484,101.825668 55.855076,102.871246 56.625328,104.039078 
	C56.182114,106.120766 55.420231,108.080193 54.310349,110.159729 
z"/>
<path fill="#F6DE4E" opacity="1.000000" stroke="none" 
	d="
M30.008575,79.005943 
	C29.219044,84.640564 26.451757,81.353058 23.961224,79.969376 
	C23.743092,79.640663 23.618425,79.455437 23.594162,79.346703 
	C25.492105,78.710625 27.085642,75.131493 29.719271,78.802811 
	C29.999712,78.999733 30.008575,79.005943 30.008575,79.005943 
z"/>
<path fill="#FAF9E5" opacity="1.000000" stroke="none" 
	d="
M70.555939,58.032642 
	C71.243279,57.373398 72.284500,56.706867 73.668922,56.063065 
	C72.978012,56.732315 71.943916,57.378838 70.555939,58.032642 
z"/>
<path fill="#FAF9E5" opacity="1.000000" stroke="none" 
	d="
M78.254478,53.938667 
	C77.991959,53.208546 78.064690,52.455051 78.225815,51.332024 
	C78.406044,51.946758 78.497894,52.931026 78.254478,53.938667 
z"/>
<path fill="#FAF9E5" opacity="1.000000" stroke="none" 
	d="
M62.017075,90.549744 
	C61.456635,90.666145 60.892620,90.435524 60.328606,90.204903 
	C60.703751,89.578850 61.078892,88.952797 61.752972,88.224159 
	C62.039108,88.815292 62.026306,89.509010 62.017075,90.549744 
z"/>
<path fill="#CCCE71" opacity="1.000000" stroke="none" 
	d="
M65.611710,26.546000 
	C65.305618,26.729692 64.720100,26.752054 64.094376,26.540134 
	C64.480202,26.332123 64.906235,26.358395 65.611710,26.546000 
z"/>
<path fill="#FAFAEA" opacity="1.000000" stroke="none" 
	d="
M34.191971,90.907089 
	C34.051029,90.647636 34.248249,90.394447 34.794426,90.164902 
	C34.910069,90.413124 34.705650,90.654724 34.191971,90.907089 
z"/>
<path fill="#FAFAEA" opacity="1.000000" stroke="none" 
	d="
M35.313637,89.918411 
	C35.153843,89.700714 35.308765,89.429558 35.787834,89.115463 
	C35.935295,89.331512 35.774086,89.595650 35.313637,89.918411 
z"/>
<path fill="#F7F6E2" opacity="1.000000" stroke="none" 
	d="
M26.066891,57.206383 
	C26.164255,57.041603 26.337019,57.039082 26.752686,57.127068 
	C26.711157,57.267937 26.426722,57.318291 26.066891,57.206383 
z"/>
<path fill="#FEEF6B" opacity="1.000000" stroke="none" 
	d="
M43.293488,56.980202 
	C41.801395,56.333817 40.681889,55.645973 39.259315,54.813698 
	C38.640663,51.369633 38.325081,48.069996 38.003540,44.384949 
	C41.905514,43.315193 42.226398,45.651180 41.453979,48.635010 
	C44.704788,49.142319 47.161179,49.619194 48.436886,45.638130 
	C48.718243,44.760117 53.230263,44.757874 55.596378,45.268578 
	C56.517979,45.467499 57.124496,48.155590 57.413891,49.791359 
	C57.545597,50.535831 56.558334,51.478268 55.679024,52.684830 
	C52.359226,52.812855 48.983612,51.466919 47.998245,55.999390 
	C46.554188,56.312511 45.110126,56.625629 43.293488,56.980202 
z"/>
<path fill="#FEEF6B" opacity="1.000000" stroke="none" 
	d="
M50.211571,66.701706 
	C46.913883,64.403961 43.871677,61.839478 48.201523,57.434200 
	C52.649570,59.178730 55.225189,57.632393 56.974983,53.998169 
	C58.078701,53.364368 59.182423,52.730568 60.560978,51.938942 
	C61.704784,53.650665 62.958866,55.031750 63.596230,56.654995 
	C64.023254,57.742546 64.015312,59.506222 63.380424,60.346889 
	C62.864525,61.029991 61.087757,60.656494 59.940662,60.992374 
	C58.328556,61.464424 56.666138,61.963966 55.236778,62.809414 
	C53.522572,63.823345 52.030933,65.213562 50.211571,66.701706 
z"/>
<path fill="#EDD649" opacity="1.000000" stroke="none" 
	d="
M56.764740,53.899414 
	C55.225189,57.632393 52.649570,59.178730 48.362495,57.103203 
	C48.018219,56.937897 48.016479,56.468475 48.007362,56.233932 
	C48.983612,51.466919 52.359226,52.812855 55.638000,53.057587 
	C56.102009,53.379879 56.287979,53.621292 56.764740,53.899414 
z"/>
<path fill="#DBCB48" opacity="1.000000" stroke="none" 
	d="
M41.697861,39.002861 
	C42.667999,38.201553 43.335899,37.401737 44.007332,36.274181 
	C45.765381,36.949482 47.519894,37.952522 49.626549,38.997795 
	C48.173710,45.537128 44.239285,42.281750 40.380360,41.005985 
	C40.473736,40.305733 40.934677,39.655045 41.697861,39.002861 
z"/>
<path fill="#E1D047" opacity="1.000000" stroke="none" 
	d="
M63.796677,46.329582 
	C64.986526,46.510662 66.252319,46.415501 66.656433,46.959930 
	C67.281448,47.801956 67.670074,49.149044 67.476685,50.150154 
	C67.352921,50.790825 65.931396,51.701027 65.213631,51.602440 
	C63.527321,51.370823 61.914227,50.606201 58.929489,49.608845 
	C61.134132,48.027378 62.310303,47.183666 63.796677,46.329582 
z"/>
<path fill="#F0D743" opacity="1.000000" stroke="none" 
	d="
M61.858101,64.114952 
	C62.517281,65.534561 62.814034,66.851273 63.110786,68.167984 
	C61.905663,68.312454 60.243156,69.004005 59.604919,68.470421 
	C58.696346,67.710815 58.539864,66.051620 58.062088,64.776733 
	C59.206615,64.521835 60.351147,64.266945 61.858101,64.114952 
z"/>
<path fill="#F6DE4E" opacity="1.000000" stroke="none" 
	d="
M29.995506,78.995438 
	C30.118698,78.562683 30.246098,78.134232 30.373497,77.705772 
	C30.389439,78.058792 30.405378,78.411819 30.214947,78.885391 
	C30.008575,79.005943 29.999712,78.999733 29.995506,78.995438 
z"/>
<path fill="#EED542" opacity="1.000000" stroke="none" 
	d="
M57.552917,91.390099 
	C56.739517,92.316811 55.409252,94.023521 54.571125,93.808846 
	C52.791706,93.353081 51.268494,91.897034 49.640244,90.851067 
	C50.049431,90.081970 50.458618,89.312874 50.867805,88.543777 
	C52.998222,89.462341 55.128639,90.380898 57.552917,91.390099 
z"/>
<path fill="#FCEF6F" opacity="1.000000" stroke="none" 
	d="
M41.536800,33.544243 
	C41.480579,33.578117 41.593021,33.510368 41.536800,33.544243 
z"/>
</svg>