<svg version="1.1" id="Layer_1" xmlns="http://www.w3.org/2000/svg" xmlns:xlink="http://www.w3.org/1999/xlink" x="0px" y="0px"
	 width="100%" viewBox="0 0 91 139" enable-background="new 0 0 91 139" xml:space="preserve">
<path fill="none" opacity="1.000000" stroke="none" 
	d="
M37.000000,140.000000 
	C24.666668,140.000000 12.833336,140.000000 1.000003,140.000000 
	C1.000002,93.666672 1.000002,47.333347 1.000001,1.000016 
	C31.333323,1.000010 61.666645,1.000010 91.999977,1.000005 
	C91.999985,47.333317 91.999985,93.666634 91.999992,139.999969 
	C73.833336,140.000000 55.666668,140.000000 37.000000,140.000000 
M47.644295,96.021500 
	C46.522896,95.769814 45.401497,95.518127 43.717419,94.911514 
	C40.901661,93.869415 38.085903,92.827316 35.036465,91.148430 
	C32.574841,88.970909 30.238354,86.621574 27.593721,84.695320 
	C26.437901,83.853447 24.194258,83.138123 23.274744,83.707031 
	C22.270731,84.328239 22.113405,86.479584 21.808111,88.008110 
	C21.623335,88.933258 21.858290,89.942245 21.335396,91.262871 
	C20.792414,93.912170 20.249432,96.561470 19.495638,100.239365 
	C17.523012,101.031616 14.358491,103.002014 16.348352,107.311058 
	C18.654985,112.306076 21.945261,107.312462 23.372160,107.460106 
	C25.859121,110.215866 27.301359,113.034920 29.434727,113.728661 
	C30.754274,114.157761 33.124954,111.354500 35.771858,109.914139 
	C38.727188,110.223495 41.712048,110.367691 44.629402,110.889404 
	C47.454884,111.394684 50.210938,112.288193 53.755913,113.136833 
	C57.177334,113.491730 57.941261,115.688965 57.924393,118.730736 
	C57.900906,122.965805 58.147255,127.202370 58.278111,131.438293 
	C59.024578,131.394775 59.771049,131.351257 60.517517,131.307739 
	C60.129372,124.829826 59.866165,118.340942 59.298332,111.878822 
	C59.030014,108.825272 58.841652,106.458145 61.784904,104.092445 
	C66.460175,100.334602 69.689514,90.118027 68.205879,85.864281 
	C64.815468,91.599747 65.296135,99.349960 58.509823,103.404282 
	C57.979843,101.138794 57.554184,99.394997 57.165440,97.643005 
	C56.082775,92.763618 55.015423,87.880836 54.270813,82.408859 
	C57.363064,77.635452 60.455315,72.862045 64.135750,67.844208 
	C66.599297,65.896957 69.154610,64.052170 71.489342,61.961094 
	C72.738297,60.842476 73.607086,59.299389 74.647438,57.947861 
	C73.015526,57.036102 71.392891,56.107090 69.746414,55.222446 
	C69.208786,54.933578 68.609070,54.760265 67.853195,54.461044 
	C67.992706,52.546806 68.117867,50.829556 68.246162,49.069210 
	C72.088463,48.747551 76.786865,52.279202 77.940102,45.949215 
	C79.259987,38.704502 73.601639,39.309818 68.564194,38.670341 
	C69.591202,37.427731 70.093956,36.636211 70.767960,36.037453 
	C73.011284,34.044552 75.154991,32.207394 70.409973,30.587301 
	C69.739410,30.358347 69.681648,28.562641 68.969238,28.176353 
	C67.814377,27.550167 66.352295,27.490572 64.353569,27.079117 
	C63.903862,27.052357 63.454151,27.025597 63.246704,26.370356 
	C63.616440,25.382715 64.489426,23.661484 64.280128,23.517908 
	C61.325726,21.491171 58.224232,19.678841 55.091267,17.081423 
	C53.590199,17.423351 52.089127,17.765280 50.588058,18.107208 
	C50.653023,18.304960 50.717987,18.502710 50.782955,18.700460 
	C49.138397,18.797470 47.493843,18.894480 45.849285,18.991488 
	C46.314735,20.639536 46.780190,22.287584 47.061073,24.584030 
	C46.179966,24.413994 44.706020,24.495522 44.510433,24.034594 
	C42.760662,19.911043 39.342697,19.567652 34.971329,19.441156 
	C34.971329,23.909433 34.971329,28.051363 34.971329,32.778782 
	C31.259783,34.104416 32.485077,37.661064 32.387623,41.054089 
	C31.597853,40.001720 30.951426,38.787144 29.985769,37.933815 
	C28.414394,36.545227 26.075747,34.018063 25.060093,34.430710 
	C23.027870,35.256371 21.287128,37.543724 20.189537,39.629372 
	C19.589640,40.769283 20.550249,42.730434 20.850582,44.590309 
	C16.974308,45.523811 14.561840,48.313854 16.583815,51.749950 
	C17.572651,53.430351 21.655077,53.290321 24.337305,53.974239 
	C25.249962,53.759121 25.478951,54.814350 26.123650,55.443794 
	C27.434551,56.723682 28.868093,58.455074 30.446812,58.691063 
	C31.597673,58.863091 33.167477,57.047951 34.350006,55.910286 
	C35.159134,55.131859 35.623333,53.994892 36.873363,53.043995 
	C37.296535,53.054054 37.719707,53.064110 38.259724,53.731419 
	C39.684452,55.123020 41.109180,56.514626 41.904507,58.105164 
	C41.584419,58.638912 41.264332,59.172665 40.223591,59.933231 
	C39.172836,61.193836 37.055420,62.754086 37.306786,63.648899 
	C37.747978,65.219437 39.528717,66.522202 40.964497,67.665802 
	C41.887547,68.401009 43.189880,68.669533 44.334915,69.114548 
	C46.640388,70.010567 48.954536,70.884270 51.498497,72.583099 
	C52.012905,76.055557 52.527313,79.528015 52.957245,83.882553 
	C53.415073,88.058037 53.872902,92.233528 54.393936,96.985497 
	C52.439880,96.826942 50.699772,96.685760 48.651524,96.327614 
	C48.651524,96.327614 48.273422,96.310745 47.644295,96.021500 
z"/>
<path fill="#FAEA5B" opacity="1.000000" stroke="none" 
	d="
M42.533909,57.906227 
	C41.109180,56.514626 39.684452,55.123020 38.550880,53.382420 
	C42.465916,50.280613 45.881840,46.671249 51.331020,50.854889 
	C51.094181,48.481251 50.936085,46.896751 50.880585,44.930004 
	C51.654839,42.038731 52.326488,39.529705 53.398956,37.050430 
	C55.370174,37.336075 56.940571,37.591965 59.026676,37.931889 
	C59.026676,35.094154 59.026676,32.537079 59.040871,29.973803 
	C59.055065,29.967600 59.069614,29.940248 59.434746,29.932404 
	C61.539890,29.013630 63.279903,28.102697 65.019920,27.191765 
	C66.352295,27.490572 67.814377,27.550167 68.969238,28.176353 
	C69.681648,28.562641 69.739410,30.358347 70.409973,30.587301 
	C75.154991,32.207394 73.011284,34.044552 70.767960,36.037453 
	C70.093956,36.636211 69.591202,37.427731 68.564194,38.670341 
	C73.601639,39.309818 79.259987,38.704502 77.940102,45.949215 
	C76.786865,52.279202 72.088463,48.747551 68.246162,49.069210 
	C68.117867,50.829556 67.992706,52.546806 67.853195,54.461044 
	C68.609070,54.760265 69.208786,54.933578 69.746414,55.222446 
	C71.392891,56.107090 73.015526,57.036102 74.647438,57.947861 
	C73.607086,59.299389 72.738297,60.842476 71.489342,61.961094 
	C69.154610,64.052170 66.599297,65.896957 63.419624,67.814850 
	C62.419270,67.694946 62.135044,67.604416 61.899689,67.163712 
	C62.583828,64.954590 63.459816,63.130154 63.733788,61.219395 
	C63.840702,60.473701 62.149044,58.733391 62.028431,58.800354 
	C59.505878,60.200809 56.841202,61.529694 54.771152,63.475502 
	C53.866901,64.325493 54.269447,66.524902 53.990116,68.095787 
	C53.821644,69.043221 53.483177,69.960442 52.943520,70.921257 
	C52.198997,71.223244 51.732052,71.495209 51.265106,71.767174 
	C48.954536,70.884270 46.640388,70.010567 44.334915,69.114548 
	C43.189880,68.669533 41.887547,68.401009 40.964497,67.665802 
	C39.528717,66.522202 37.747978,65.219437 37.306786,63.648899 
	C37.055420,62.754086 39.172836,61.193836 40.877281,59.868237 
	C41.865284,59.170906 42.199596,58.538567 42.533909,57.906227 
M63.891075,41.182514 
	C63.278675,40.667404 62.666275,40.152290 62.053871,39.637180 
	C61.385044,41.094467 60.421730,42.503391 60.171127,44.029362 
	C60.045067,44.796997 61.119934,46.406078 61.819141,46.510181 
	C62.805096,46.656967 64.687294,45.940170 64.849899,45.268879 
	C65.102425,44.226364 64.229454,42.911217 63.891075,41.182514 
z"/>
<path fill="#FBEF71" opacity="1.000000" stroke="none" 
	d="
M52.998135,37.020676 
	C52.326488,39.529705 51.654839,42.038731 50.488102,44.857910 
	C45.431980,45.809139 42.860100,43.691265 42.267021,38.679977 
	C41.012146,39.770290 40.289074,40.398537 39.164925,41.021927 
	C36.901951,41.032726 35.040062,41.048389 33.178169,41.064049 
	C32.485077,37.661064 31.259783,34.104416 34.971329,32.778782 
	C34.971329,28.051363 34.971329,23.909433 34.971329,19.441156 
	C39.342697,19.567652 42.760662,19.911043 44.510433,24.034594 
	C44.706020,24.495522 46.179966,24.413994 47.518009,24.209179 
	C49.971912,23.587854 51.968884,23.341379 54.013206,23.441719 
	C55.043175,25.874353 56.025791,27.960175 56.874802,30.357327 
	C55.493507,32.785995 54.245819,34.903336 52.998135,37.020676 
z"/>
<path fill="#E5C743" opacity="1.000000" stroke="none" 
	d="
M35.023766,110.002281 
	C33.124954,111.354500 30.754274,114.157761 29.434727,113.728661 
	C27.301359,113.034920 25.859121,110.215866 23.372160,107.460106 
	C21.945261,107.312462 18.654985,112.306076 16.348352,107.311058 
	C14.358491,103.002014 17.523012,101.031616 19.495638,100.239365 
	C20.249432,96.561470 20.792414,93.912170 21.994915,91.150848 
	C26.006983,92.516647 29.359529,93.994469 33.261902,95.714661 
	C32.989143,95.922462 33.616173,95.444763 34.596039,94.937096 
	C36.488636,95.225845 38.028393,95.544563 39.619324,96.308594 
	C40.098351,100.641090 41.398335,104.800056 35.828964,106.458839 
	C35.259304,106.628502 35.278057,108.773766 35.023766,110.002281 
M24.265007,102.272278 
	C26.103832,102.524582 27.942657,102.776886 29.781481,103.029198 
	C29.972746,101.578560 30.164011,100.127914 30.534798,97.315697 
	C27.466009,99.350128 25.809568,100.448250 24.265007,102.272278 
z"/>
<path fill="#FBEC5C" opacity="1.000000" stroke="none" 
	d="
M32.782898,41.059071 
	C35.040062,41.048389 36.901951,41.032726 39.284168,41.442535 
	C40.471565,45.372711 40.406727,48.592346 36.903423,50.807426 
	C36.412983,51.117523 36.449265,52.260674 36.241730,53.018208 
	C35.623333,53.994892 35.159134,55.131859 34.350006,55.910286 
	C33.167477,57.047951 31.597673,58.863091 30.446812,58.691063 
	C28.868093,58.455074 27.434551,56.723682 26.123650,55.443794 
	C25.478951,54.814350 25.249962,53.759121 24.337305,53.974239 
	C21.655077,53.290321 17.572651,53.430351 16.583815,51.749950 
	C14.561840,48.313854 16.974308,45.523811 20.850582,44.590309 
	C20.550249,42.730434 19.589640,40.769283 20.189537,39.629372 
	C21.287128,37.543724 23.027870,35.256371 25.060093,34.430710 
	C26.075747,34.018063 28.414394,36.545227 29.985769,37.933815 
	C30.951426,38.787144 31.597853,40.001720 32.782898,41.059071 
M26.334974,44.483215 
	C25.343006,46.151897 24.351040,47.820583 23.359074,49.489265 
	C23.778543,49.984619 24.198011,50.479977 24.617481,50.975330 
	C25.972229,46.837940 31.396429,52.345600 31.732225,46.757072 
	C31.777256,46.007645 28.530762,45.060448 26.334974,44.483215 
z"/>
<path fill="#F9F9F0" opacity="1.000000" stroke="none" 
	d="
M35.397812,109.958206 
	C35.278057,108.773766 35.259304,106.628502 35.828964,106.458839 
	C41.398335,104.800056 40.098351,100.641090 40.003815,96.413071 
	C41.548096,96.414192 42.759060,96.756157 44.243942,97.305725 
	C45.630684,97.805321 46.743511,98.097305 47.981201,98.589066 
	C48.106060,98.788849 48.529938,98.994728 48.529938,98.994728 
	C48.529938,98.994728 48.997116,98.933029 49.416885,98.988678 
	C56.096458,99.399170 56.250225,99.671242 56.756149,111.137047 
	C55.463219,111.781723 54.230350,112.396454 52.997482,113.011185 
	C50.210938,112.288193 47.454884,111.394684 44.629402,110.889404 
	C41.712048,110.367691 38.727188,110.223495 35.397812,109.958206 
z"/>
<path fill="#80894F" opacity="1.000000" stroke="none" 
	d="
M53.376694,113.074005 
	C54.230350,112.396454 55.463219,111.781723 56.756149,111.137047 
	C56.250225,99.671242 56.096458,99.399170 49.411667,98.591393 
	C48.977676,97.607155 48.968670,97.075859 48.959667,96.544571 
	C50.699772,96.685760 52.439880,96.826942 54.393936,96.985497 
	C53.872902,92.233528 53.415073,88.058037 53.224556,83.441559 
	C53.491867,83.000557 53.942020,82.999390 53.942024,82.999390 
	C55.015423,87.880836 56.082775,92.763618 57.165440,97.643005 
	C57.554184,99.394997 57.979843,101.138794 58.509823,103.404282 
	C65.296135,99.349960 64.815468,91.599747 68.205879,85.864281 
	C69.689514,90.118027 66.460175,100.334602 61.784904,104.092445 
	C58.841652,106.458145 59.030014,108.825272 59.298332,111.878822 
	C59.866165,118.340942 60.129372,124.829826 60.517517,131.307739 
	C59.771049,131.351257 59.024578,131.394775 58.278111,131.438293 
	C58.147255,127.202370 57.900906,122.965805 57.924393,118.730736 
	C57.941261,115.688965 57.177334,113.491730 53.376694,113.074005 
z"/>
<path fill="none" opacity="1.000000" stroke="none" 
	d="
M34.243202,94.967064 
	C33.616173,95.444763 32.989143,95.922462 33.261902,95.714661 
	C29.359529,93.994469 26.006983,92.516647 22.279549,90.976196 
	C21.858290,89.942245 21.623335,88.933258 21.808111,88.008110 
	C22.113405,86.479584 22.270731,84.328239 23.274744,83.707031 
	C24.194258,83.138123 26.437901,83.853447 27.593721,84.695320 
	C30.238354,86.621574 32.574841,88.970909 35.093430,91.804871 
	C34.848000,93.296562 34.545605,94.131813 34.243202,94.967064 
z"/>
<path fill="#FCFAD5" opacity="1.000000" stroke="none" 
	d="
M36.557549,53.031101 
	C36.449265,52.260674 36.412983,51.117523 36.903423,50.807426 
	C40.406727,48.592346 40.471565,45.372711 39.685249,41.447395 
	C40.289074,40.398537 41.012146,39.770290 42.267021,38.679977 
	C42.860100,43.691265 45.431980,45.809139 50.385498,45.240166 
	C50.936085,46.896751 51.094181,48.481251 51.331020,50.854889 
	C45.881840,46.671249 42.465916,50.280613 38.492455,53.053795 
	C37.719707,53.064110 37.296535,53.054054 36.557549,53.031101 
z"/>
<path fill="#FAEC60" opacity="1.000000" stroke="none" 
	d="
M57.008408,30.045998 
	C56.025791,27.960175 55.043175,25.874353 54.268936,23.229519 
	C54.704342,21.051849 54.931370,19.433195 55.158394,17.814541 
	C58.224232,19.678841 61.325726,21.491171 64.280128,23.517908 
	C64.489426,23.661484 63.616440,25.382715 62.763653,26.685425 
	C61.210274,27.980412 60.139942,28.960329 59.069614,29.940248 
	C59.069614,29.940248 59.055065,29.967600 58.704552,29.937849 
	C57.905499,29.954065 57.456955,30.000031 57.008408,30.045998 
z"/>
<path fill="#80894E" opacity="1.000000" stroke="none" 
	d="
M54.106415,82.704124 
	C53.942020,82.999390 53.491867,83.000557 53.266792,83.000519 
	C52.527313,79.528015 52.012905,76.055557 51.381802,72.175140 
	C51.732052,71.495209 52.198997,71.223244 52.937828,71.347221 
	C53.462708,74.071068 53.715706,76.398972 53.968704,78.726875 
	C54.509850,78.791115 55.050999,78.855354 55.592144,78.919594 
	C57.678368,75.117691 59.764591,71.315788 61.850819,67.513885 
	C62.135044,67.604416 62.419270,67.694946 63.125534,67.937065 
	C60.455315,72.862045 57.363064,77.635452 54.106415,82.704124 
z"/>
<path fill="#C9CC63" opacity="1.000000" stroke="none" 
	d="
M55.124832,17.447983 
	C54.931370,19.433195 54.704342,21.051849 54.221581,22.882704 
	C51.968884,23.341379 49.971912,23.587854 47.610291,23.884981 
	C46.780190,22.287584 46.314735,20.639536 45.849285,18.991488 
	C47.493843,18.894480 49.138397,18.797470 50.782955,18.700460 
	C50.717987,18.502710 50.653023,18.304960 50.588058,18.107208 
	C52.089127,17.765280 53.590199,17.423351 55.124832,17.447983 
z"/>
<path fill="#878E4E" opacity="1.000000" stroke="none" 
	d="
M34.596039,94.937096 
	C34.545605,94.131813 34.848000,93.296562 35.210270,92.123260 
	C38.085903,92.827316 40.901661,93.869415 43.907101,95.545090 
	C44.054527,96.485153 44.012276,96.791641 43.970024,97.098122 
	C42.759060,96.756157 41.548096,96.414192 39.952641,95.967758 
	C38.028393,95.544563 36.488636,95.225845 34.596039,94.937096 
z"/>
<path fill="#FBEF71" opacity="1.000000" stroke="none" 
	d="
M59.434746,29.932404 
	C60.139942,28.960329 61.210274,27.980412 62.642525,26.999664 
	C63.454151,27.025597 63.903862,27.052357 64.686745,27.135441 
	C63.279903,28.102697 61.539890,29.013630 59.434746,29.932404 
z"/>
<path fill="#80894F" opacity="1.000000" stroke="none" 
	d="
M44.243942,97.305725 
	C44.012276,96.791641 44.054527,96.485153 44.188438,95.722557 
	C45.401497,95.518127 46.522896,95.769814 47.849968,96.685509 
	C47.989204,97.696106 47.922775,98.042702 47.856339,98.389290 
	C46.743511,98.097305 45.630684,97.805321 44.243942,97.305725 
z"/>
<path fill="#FEFCE0" opacity="1.000000" stroke="none" 
	d="
M42.219208,58.005695 
	C42.199596,58.538567 41.865284,59.170906 41.237610,59.754829 
	C41.264332,59.172665 41.584419,58.638912 42.219208,58.005695 
z"/>
<path fill="#878E4E" opacity="1.000000" stroke="none" 
	d="
M47.981201,98.589066 
	C47.922775,98.042702 47.989204,97.696106 48.164528,96.830132 
	C48.273422,96.310745 48.651524,96.327614 48.805595,96.436089 
	C48.968670,97.075859 48.977676,97.607155 48.991898,98.535736 
	C48.997116,98.933029 48.529938,98.994728 48.529938,98.994728 
	C48.529938,98.994728 48.106060,98.788849 47.981201,98.589066 
z"/>
<path fill="#F9F9EE" opacity="1.000000" stroke="none" 
	d="
M61.899689,67.163712 
	C59.764591,71.315788 57.678368,75.117691 55.592144,78.919594 
	C55.050999,78.855354 54.509850,78.791115 53.968704,78.726875 
	C53.715706,76.398972 53.462708,74.071068 53.215405,71.317200 
	C53.483177,69.960442 53.821644,69.043221 53.990116,68.095787 
	C54.269447,66.524902 53.866901,64.325493 54.771152,63.475502 
	C56.841202,61.529694 59.505878,60.200809 62.028431,58.800354 
	C62.149044,58.733391 63.840702,60.473701 63.733788,61.219395 
	C63.459816,63.130154 62.583828,64.954590 61.899689,67.163712 
z"/>
<path fill="#FDFDEB" opacity="1.000000" stroke="none" 
	d="
M56.874802,30.357327 
	C57.456955,30.000031 57.905499,29.954065 58.690361,29.944052 
	C59.026676,32.537079 59.026676,35.094154 59.026676,37.931889 
	C56.940571,37.591965 55.370174,37.336075 53.398952,37.050430 
	C54.245819,34.903336 55.493507,32.785995 56.874802,30.357327 
z"/>
<path fill="#E1D147" opacity="1.000000" stroke="none" 
	d="
M63.862331,41.447075 
	C64.229454,42.911217 65.102425,44.226364 64.849899,45.268879 
	C64.687294,45.940170 62.805096,46.656967 61.819141,46.510181 
	C61.119934,46.406078 60.045067,44.796997 60.171127,44.029362 
	C60.421730,42.503391 61.385044,41.094467 62.053871,39.637180 
	C62.666275,40.152290 63.278675,40.667404 63.862331,41.447075 
z"/>
<path fill="#D4BA38" opacity="1.000000" stroke="none" 
	d="
M24.209066,101.909332 
	C25.809568,100.448250 27.466009,99.350128 30.534798,97.315697 
	C30.164011,100.127914 29.972746,101.578560 29.781483,103.029198 
	C27.942657,102.776886 26.103832,102.524582 24.209066,101.909332 
z"/>
<path fill="#E3D14A" opacity="1.000000" stroke="none" 
	d="
M26.571728,44.344025 
	C28.530762,45.060448 31.777256,46.007645 31.732225,46.757072 
	C31.396429,52.345600 25.972229,46.837940 24.617481,50.975330 
	C24.198011,50.479977 23.778543,49.984619 23.359074,49.489265 
	C24.351040,47.820583 25.343006,46.151897 26.571728,44.344025 
z"/>
</svg>