<svg version="1.1" id="Layer_1" xmlns="http://www.w3.org/2000/svg" xmlns:xlink="http://www.w3.org/1999/xlink" x="0px" y="0px"
	 width="100%" viewBox="0 0 980 980" enable-background="new 0 0 980 980" xml:space="preserve">
<path fill="none" opacity="1.000000" stroke="none" 
	d="
M649.000000,981.000000 
	C432.666656,981.000000 216.833328,981.000000 1.000000,981.000000 
	C1.000000,654.333313 1.000000,327.666656 1.000000,1.000000 
	C327.666656,1.000000 654.333313,1.000000 981.000000,1.000000 
	C981.000000,327.666656 981.000000,654.333313 981.000000,981.000000 
	C870.500000,981.000000 760.000000,981.000000 649.000000,981.000000 
M173.269531,775.505066 
	C172.822601,781.294128 172.331985,787.080261 171.936386,792.872864 
	C170.285339,817.047913 168.567749,841.219177 167.081528,865.404541 
	C166.561722,873.863281 166.833984,873.948242 175.585892,873.905945 
	C228.372833,873.650940 281.159302,873.283569 333.946503,873.108704 
	C379.094208,872.959106 424.242584,873.009277 469.390686,872.985229 
	C542.027588,872.946594 614.664429,872.919983 687.301331,872.887451 
	C695.201904,872.883911 696.087769,872.127930 698.136719,864.276550 
	C699.687012,858.336060 701.603333,852.483215 702.959412,846.501282 
	C709.999390,815.447266 717.025391,784.389099 723.801636,753.276855 
	C725.914612,743.575439 727.232239,733.700806 729.204285,723.269409 
	C729.432617,721.897522 729.661011,720.525696 730.123901,718.360107 
	C730.364319,717.565674 730.707336,716.786682 730.830383,715.974487 
	C734.923279,688.952332 739.387451,661.978760 742.966248,634.888306 
	C747.021301,604.192932 751.035461,573.456726 753.661255,542.618530 
	C756.039917,514.682617 757.119934,486.596771 757.650818,458.555817 
	C758.040283,437.987244 756.869141,417.372589 755.915466,396.800629 
	C755.216797,381.729126 753.742310,366.693604 752.831055,350.798340 
	C756.388855,350.140442 759.946716,349.482574 764.408020,349.101990 
	C768.994019,348.379486 773.691467,348.068573 778.146423,346.862152 
	C795.988708,342.030396 810.709717,333.251343 814.215149,313.346405 
	C817.134644,296.769043 814.922485,284.704193 799.750000,274.455566 
	C782.324463,262.685059 762.654724,259.838074 742.084045,261.507874 
	C739.854736,261.688843 737.616882,261.764404 735.438721,261.885773 
	C728.861328,229.338043 718.099976,199.091965 701.031433,171.305466 
	C689.194397,152.035721 671.810059,139.029922 652.213196,128.404037 
	C626.620178,114.526917 599.158386,108.157852 570.338745,108.278297 
	C551.606812,108.356583 533.615417,113.848633 515.925354,119.668564 
	C483.654999,130.285355 453.616028,145.533173 425.387604,164.374069 
	C402.394165,179.720901 380.731110,196.766647 360.676849,215.806244 
	C349.812317,226.121063 339.221680,236.724655 328.332001,247.012207 
	C326.702545,248.551559 324.154907,249.803329 321.953705,249.941696 
	C308.023346,250.817368 294.030548,250.884491 280.136993,252.110092 
	C266.031769,253.354370 253.462982,258.656006 243.396179,269.106567 
	C230.374664,282.624512 229.107620,304.195190 240.854950,316.639526 
	C248.635941,324.882202 258.819122,327.461731 269.484802,329.009125 
	C271.650299,329.323303 273.773773,329.927216 276.017914,330.419800 
	C269.523529,346.190216 262.667389,361.012939 257.265991,376.348083 
	C247.054169,405.340485 236.716370,434.350311 228.216278,463.867035 
	C219.086136,495.571655 211.492599,527.750671 204.209152,559.944519 
	C199.017181,582.893799 195.151199,606.160095 191.244263,629.377625 
	C188.053085,648.341797 185.566696,667.428040 182.974152,686.488220 
	C180.919052,701.597351 178.969635,716.727051 177.358383,731.888489 
	C175.973480,744.920105 175.133224,758.009644 173.753937,771.592773 
	C173.667206,772.581238 173.580460,773.569702 173.269531,775.505066 
z"/>
<path fill="#CBBCB5" opacity="1.000000" stroke="none" 
	d="
M174.052139,771.073547 
	C175.133224,758.009644 175.973480,744.920105 177.358383,731.888489 
	C178.969635,716.727051 180.919052,701.597351 182.974152,686.488220 
	C185.566696,667.428040 188.053085,648.341797 191.244263,629.377625 
	C195.151199,606.160095 199.017181,582.893799 204.209152,559.944519 
	C211.492599,527.750671 219.086136,495.571655 228.216278,463.867035 
	C236.716370,434.350311 247.054169,405.340485 257.265991,376.348083 
	C262.667389,361.012939 269.523529,346.190216 276.017914,330.419800 
	C273.773773,329.927216 271.650299,329.323303 269.484802,329.009125 
	C258.819122,327.461731 248.635941,324.882202 240.854950,316.639526 
	C229.107620,304.195190 230.374664,282.624512 243.396179,269.106567 
	C253.462982,258.656006 266.031769,253.354370 280.136993,252.110092 
	C294.030548,250.884491 308.023346,250.817368 321.953705,249.941696 
	C324.154907,249.803329 326.702545,248.551559 328.332001,247.012207 
	C339.221680,236.724655 349.812317,226.121063 360.676849,215.806244 
	C380.731110,196.766647 402.394165,179.720901 425.387604,164.374069 
	C453.616028,145.533173 483.654999,130.285355 515.925354,119.668564 
	C533.615417,113.848633 551.606812,108.356583 570.338745,108.278297 
	C599.158386,108.157852 626.620178,114.526917 652.213196,128.404037 
	C671.810059,139.029922 689.194397,152.035721 701.031433,171.305466 
	C718.099976,199.091965 728.861328,229.338043 735.438721,261.885773 
	C737.616882,261.764404 739.854736,261.688843 742.084045,261.507874 
	C762.654724,259.838074 782.324463,262.685059 799.750000,274.455566 
	C814.922485,284.704193 817.134644,296.769043 814.215149,313.346405 
	C810.709717,333.251343 795.988708,342.030396 778.146423,346.862152 
	C773.691467,348.068573 768.994019,348.379486 763.604370,348.924377 
	C744.819702,348.365753 726.815918,348.435852 708.861938,347.523743 
	C639.993469,344.025085 571.154053,339.943146 502.278015,336.610382 
	C457.361328,334.436981 412.400604,333.170349 367.457611,331.553528 
	C365.672333,331.489319 363.866272,332.003296 362.069885,332.247833 
	C362.059418,332.796112 362.048920,333.344360 362.038452,333.892639 
	C363.608185,334.179474 365.172302,334.679352 366.748505,334.720917 
	C387.397644,335.265656 408.073120,335.266205 428.694519,336.326538 
	C509.040680,340.457977 589.361023,345.094757 669.710205,349.163544 
	C697.315735,350.561462 724.977478,350.847839 752.613525,351.642029 
	C753.742310,366.693604 755.216797,381.729126 755.915466,396.800629 
	C756.869141,417.372589 758.040283,437.987244 757.650818,458.555817 
	C757.119934,486.596771 756.039917,514.682617 753.661255,542.618530 
	C751.035461,573.456726 747.021301,604.192932 742.966248,634.888306 
	C739.387451,661.978760 734.923279,688.952332 730.830383,715.974487 
	C730.707336,716.786682 730.364319,717.565674 729.695007,718.861328 
	C722.695740,723.910400 716.161560,728.511658 709.548523,732.996521 
	C682.088135,751.619690 652.741211,765.667725 619.529297,770.631287 
	C591.610596,774.803650 563.742615,779.073792 535.654053,769.851807 
	C533.105957,768.618958 530.811096,767.645325 528.584229,766.535461 
	C518.710693,761.614197 512.775146,753.244934 522.337036,741.003784 
	C527.801697,738.291138 532.722961,734.429749 538.162903,733.450745 
	C549.052673,731.490906 560.224731,731.089905 571.284668,730.095520 
	C572.919067,729.948486 574.577942,730.075012 576.225525,730.075012 
	C576.310120,729.484070 576.394714,728.893188 576.479309,728.302246 
	C575.120667,727.864685 573.774780,727.093140 572.401428,727.040710 
	C557.516479,726.473145 542.820251,727.339600 528.728516,732.894653 
	C527.383789,733.424683 525.622925,732.899231 523.920898,732.618958 
	C523.018677,731.863525 522.250732,731.352905 521.298340,730.541382 
	C519.718445,728.167542 518.322876,726.094666 516.916077,723.701050 
	C516.616760,722.581665 516.328735,721.782959 516.068481,720.573364 
	C516.730957,717.112793 517.365723,714.062988 518.285889,710.841309 
	C525.070190,703.084351 533.199524,698.207214 542.919434,695.925781 
	C560.337524,691.837524 577.611938,692.590027 594.805054,697.283203 
	C596.395569,697.717346 598.134033,697.609375 599.803772,697.753174 
	C599.834351,697.043884 599.864929,696.334656 599.895447,695.625366 
	C579.487061,688.580505 558.703613,688.426575 537.618225,693.750427 
	C537.350769,692.671387 537.106689,692.052795 537.053894,691.418335 
	C536.205017,681.219177 542.105896,672.764160 554.023438,667.481567 
	C587.073547,652.831787 621.444824,648.610840 657.092346,654.589050 
	C659.012512,654.911011 661.002258,654.818054 662.959656,654.918274 
	C663.075745,654.396301 663.191833,653.874329 663.307922,653.352356 
	C662.289673,652.855347 661.316467,652.085083 660.245361,651.908203 
	C655.320190,651.094971 650.385620,650.269470 645.421997,649.769348 
	C613.428162,646.545410 582.614563,651.158569 553.223022,664.292053 
	C540.953003,669.774902 532.414246,678.071350 533.862610,693.073730 
	C533.972229,694.209778 532.054199,695.729919 530.825745,696.773804 
	C525.948120,700.919006 520.969971,704.945984 515.774536,709.186279 
	C515.023499,710.014526 514.526978,710.673401 513.744995,711.048157 
	C513.020203,708.861084 512.648865,706.939209 512.129150,705.058411 
	C510.392975,698.775818 507.804108,692.602112 507.050110,686.208862 
	C506.225433,679.216064 503.720673,674.359436 496.973938,671.588440 
	C496.895874,669.222229 496.808502,667.303772 496.726105,665.495300 
	C495.675140,665.259155 495.188446,665.181213 494.721191,665.039307 
	C492.855988,664.472778 490.996796,663.886353 489.135376,663.307373 
	C490.709106,661.873291 492.337830,660.493896 493.837646,658.986206 
	C494.876404,657.942017 496.221985,656.853455 496.577942,655.551514 
	C497.342377,652.755615 497.555603,649.808960 498.313263,646.728271 
	C525.955627,638.458069 550.204041,624.309387 573.660645,608.584473 
	C586.452454,600.009094 598.394226,590.478271 607.894531,578.213501 
	C608.927429,576.879944 609.469360,575.166199 610.239075,573.628845 
	C609.295044,572.841675 608.350952,572.054443 607.406921,571.267273 
	C606.795593,572.812256 606.494934,574.600464 605.512634,575.854858 
	C602.950500,579.126831 600.294617,582.376465 597.315125,585.262329 
	C576.854675,605.080017 552.601440,619.273926 527.314026,631.817200 
	C505.555450,642.610107 482.671509,649.244934 457.829346,648.903137 
	C449.565491,634.708008 440.239166,621.978882 425.212921,613.487610 
	C425.068878,615.510803 424.977478,616.493591 424.932068,617.478516 
	C424.472656,627.445312 428.213440,636.325439 431.718811,645.139160 
	C395.153717,634.647217 369.188721,611.519104 350.208588,579.334778 
	C349.846313,581.471863 350.106995,583.094666 350.851624,584.452087 
	C361.126404,603.184082 375.114227,618.613403 392.746002,630.635803 
	C405.328217,639.215149 418.957428,645.624939 434.135376,649.259338 
	C442.213715,657.021545 450.048798,664.550720 457.610046,672.382446 
	C452.205444,672.926453 446.710419,672.077087 442.021851,673.642822 
	C433.026062,676.646729 425.518738,682.404358 419.147491,689.598877 
	C413.906952,695.516541 408.255768,701.069275 402.959442,706.939758 
	C401.597809,708.449097 400.888489,710.546936 399.593628,712.177002 
	C394.144440,705.185120 386.714478,702.927979 378.763153,702.184631 
	C340.668182,698.623108 302.560425,695.197510 264.453491,691.764832 
	C263.134033,691.645935 261.775208,691.963745 260.434723,692.078003 
	C260.364319,692.599243 260.293915,693.120422 260.223480,693.641663 
	C261.567047,694.077454 262.885803,694.783264 264.257843,694.909363 
	C294.240448,697.665405 324.235779,700.284851 354.212708,703.100403 
	C364.634094,704.079224 375.142334,704.864807 385.376312,706.911621 
	C396.704193,709.177246 400.706390,717.343079 396.784973,728.355957 
	C396.247223,729.244995 396.018616,730.016663 395.511169,730.818481 
	C394.828094,731.216125 394.423859,731.583740 393.628906,731.977661 
	C389.389557,732.992432 385.588684,734.268005 381.683685,734.917297 
	C368.053101,737.183594 354.380280,739.194885 340.743286,741.424194 
	C339.364868,741.649597 338.120300,742.693970 336.813599,743.358276 
	C337.015839,743.927063 337.218048,744.495911 337.420288,745.064697 
	C340.962341,744.565186 344.497528,744.009399 348.047638,743.575806 
	C364.371460,741.582153 380.699432,739.622620 397.385498,737.771484 
	C398.716827,738.122803 399.711945,738.283081 400.656708,738.595520 
	C407.187286,740.755615 412.547150,744.442932 413.778076,751.603088 
	C414.995544,758.685181 410.455292,763.024048 405.048767,766.570679 
	C404.633942,766.842834 404.266479,767.187012 403.508179,767.618408 
	C399.082672,769.197937 395.098572,770.918091 390.956238,772.068848 
	C375.707672,776.305237 360.062927,776.379272 344.401611,776.213318 
	C342.529938,776.193420 340.652863,776.684509 338.778320,776.938721 
	C338.801666,777.459229 338.825012,777.979736 338.848358,778.500244 
	C339.827820,778.804810 340.801453,779.354309 341.787628,779.377686 
	C359.450439,779.797180 377.047821,779.537842 394.270935,774.754517 
	C397.420654,773.879761 400.774628,773.740540 404.343323,773.476929 
	C412.734833,777.129517 416.059906,784.040833 412.027374,791.866272 
	C409.630432,796.517639 405.595337,800.772461 401.337524,803.899536 
	C396.452606,807.487183 390.506500,809.629944 384.656494,812.447083 
	C378.506348,814.014832 372.794281,815.953674 366.922821,816.982849 
	C344.653198,820.885986 322.427765,818.734070 300.298065,815.622742 
	C255.236008,809.287292 213.216675,794.191162 174.052139,771.073547 
M411.808716,429.618469 
	C405.062592,425.741180 397.883667,425.122742 390.591644,427.417542 
	C374.172974,432.584595 361.466400,442.343750 353.455597,457.890259 
	C347.537201,469.376068 346.255035,480.945129 351.921783,492.881989 
	C357.111481,503.813995 366.863800,509.983276 378.102997,507.609406 
	C399.311523,503.129913 415.696533,491.502502 424.401093,471.201538 
	C431.433350,454.800659 426.505341,439.499115 411.808716,429.618469 
M632.915405,455.660400 
	C623.417664,441.490753 610.881104,437.198303 595.381653,444.061554 
	C588.051514,447.307373 580.757202,451.628510 574.927856,457.053864 
	C564.159607,467.075867 557.089905,479.493011 558.145020,494.977509 
	C559.627930,516.739136 576.294128,527.680054 596.681274,520.206116 
	C609.458008,515.522156 620.299988,507.779602 628.228149,496.680450 
	C637.070251,484.301880 640.347595,470.872650 632.915405,455.660400 
M484.076385,479.737885 
	C485.171570,487.762543 486.266754,495.787201 487.389252,504.011841 
	C486.351318,504.291992 485.569946,504.501343 484.789459,504.713745 
	C472.953217,507.934937 460.891388,510.512115 449.343170,514.555969 
	C437.330841,518.762329 426.172150,524.914185 418.940063,536.155334 
	C408.627350,552.184937 413.907318,569.973389 431.700043,576.562683 
	C454.079193,584.850525 476.823303,583.583130 499.425964,576.902954 
	C500.296265,576.645691 500.938416,575.616516 501.686859,574.947083 
	C501.522552,574.547180 501.358215,574.147339 501.193909,573.747437 
	C499.562683,574.006226 497.891907,574.118408 496.306244,574.546082 
	C475.419067,580.180725 454.529541,581.021545 433.813629,574.005127 
	C418.666687,568.874939 412.676331,554.817322 420.409973,540.876221 
	C423.660004,535.017578 428.797150,529.393311 434.444397,525.831482 
	C450.513062,515.696838 468.185913,509.308014 487.327423,507.796539 
	C490.389648,507.554688 491.791046,507.166168 491.121124,503.428040 
	C489.389832,493.767334 488.201996,484.009827 486.742493,474.299164 
	C486.549408,473.014557 486.038605,471.777710 485.674957,470.518738 
	C484.996582,470.618378 484.318207,470.718018 483.639862,470.817627 
	C483.764282,473.499512 483.888702,476.181396 484.076385,479.737885 
M499.326538,395.724518 
	C535.575256,393.573914 575.508301,385.755981 579.210571,379.272522 
	C576.781250,379.692596 574.980042,379.928192 573.213989,380.321503 
	C560.061157,383.250671 547.031006,386.952484 533.745911,389.024933 
	C491.195892,395.662689 449.073059,393.137085 407.532196,381.570374 
	C405.924500,381.122772 404.131073,381.342255 402.424194,381.250885 
	C402.378357,381.921051 402.332489,382.591187 402.286621,383.261353 
	C433.538849,392.927277 465.638458,396.563904 499.326538,395.724518 
M413.499817,259.476898 
	C457.636139,260.634186 501.772461,261.791443 546.542603,262.965332 
	C540.324219,257.812531 392.547028,253.753036 387.718872,259.476379 
	C395.979187,259.476379 404.239502,259.476379 413.499817,259.476898 
M227.904602,608.806885 
	C227.517136,605.060852 227.758041,601.098083 226.561981,597.631042 
	C225.411484,594.296082 222.091934,594.422424 220.813095,597.779846 
	C219.665604,600.792480 218.887802,604.285400 219.237228,607.422729 
	C219.522842,609.987061 221.710999,612.339478 223.055634,614.785889 
	C224.587997,613.057129 226.120377,611.328369 227.904602,608.806885 
M274.120483,432.904938 
	C276.823822,436.342316 279.654968,436.262360 280.561462,432.220215 
	C281.389313,428.528748 281.293304,424.372986 280.501099,420.657043 
	C279.872437,417.708344 277.306854,417.451477 275.469452,420.250793 
	C273.055237,423.928955 272.866119,427.965607 274.120483,432.904938 
M684.971863,217.589279 
	C685.031250,220.043518 684.656067,223.345947 688.286804,222.745804 
	C689.998779,222.462814 691.661316,219.919662 692.673401,218.038605 
	C693.373047,216.738297 693.304749,214.710754 692.882812,213.203201 
	C692.392883,211.452759 691.141235,209.915527 690.220215,208.285706 
	C688.819885,209.673218 687.176514,210.897919 686.101196,212.503143 
	C685.332214,213.651215 685.324951,215.309555 684.971863,217.589279 
M695.986755,434.367889 
	C696.939453,435.896027 697.892151,437.424164 698.844910,438.952271 
	C700.195435,437.701691 702.200500,436.684723 702.748962,435.147949 
	C703.658813,432.598083 703.852783,429.716003 703.878235,426.969574 
	C703.886902,426.027466 702.520813,424.333313 701.722107,424.296448 
	C700.525940,424.241272 698.627563,425.046265 698.178406,426.017517 
	C697.093994,428.362274 696.676147,431.015198 695.986755,434.367889 
M697.139771,566.098083 
	C697.325989,569.170166 695.491394,573.363525 699.925842,574.276917 
	C701.066772,574.512024 703.966003,570.606628 704.484375,568.256409 
	C705.022583,565.815918 703.653870,562.954834 703.119080,560.277649 
	C701.216003,561.964844 699.312988,563.652100 697.139771,566.098083 
M270.637482,551.072998 
	C266.714386,553.355652 264.295166,559.921326 266.502563,563.278137 
	C267.108124,564.199097 269.525574,564.866211 270.544067,564.402710 
	C273.633270,562.996948 274.066284,553.691223 270.637482,551.072998 
M322.029297,372.221558 
	C322.032227,371.555847 322.230957,370.810577 321.999207,370.240234 
	C321.434052,368.849457 320.669434,367.539703 319.985138,366.197327 
	C318.804321,367.163055 317.102936,367.898285 316.551849,369.142883 
	C315.429871,371.676849 314.694916,374.451813 314.297607,377.199371 
	C314.158081,378.164154 315.255768,379.857880 316.195679,380.254822 
	C316.948242,380.572723 318.759399,379.724670 319.319946,378.877441 
	C320.486755,377.114014 321.136230,375.008301 322.029297,372.221558 
M649.283875,169.421310 
	C647.840332,169.839417 645.661316,169.807556 645.082092,170.754395 
	C642.716858,174.620819 640.868103,178.790924 642.549133,183.610092 
	C647.565063,181.874969 650.150146,176.847427 649.283875,169.421310 
M279.001038,628.286682 
	C282.653442,628.499939 288.356506,620.853516 286.550476,617.820679 
	C286.087708,617.043457 283.076935,616.676453 282.395233,617.329773 
	C279.538788,620.067261 277.092499,623.253296 279.001038,628.286682 
M637.961060,234.095581 
	C637.784851,231.442734 637.608704,228.789871 637.432556,226.137009 
	C635.678345,228.037415 633.921326,229.935272 632.177368,231.845016 
	C632.078430,231.953323 632.027893,232.169006 632.053223,232.317978 
	C632.398010,234.342972 632.760132,236.365005 633.117981,238.387772 
	C634.614258,237.187408 636.110474,235.987061 637.961060,234.095581 
z"/>
<path fill="#CBBCB5" opacity="1.000000" stroke="none" 
	d="
M728.913879,723.905518 
	C727.232239,733.700806 725.914612,743.575439 723.801636,753.276855 
	C717.025391,784.389099 709.999390,815.447266 702.959412,846.501282 
	C701.603333,852.483215 699.687012,858.336060 698.136719,864.276550 
	C696.087769,872.127930 695.201904,872.883911 687.301331,872.887451 
	C614.664429,872.919983 542.027588,872.946594 469.390686,872.985229 
	C424.242584,873.009277 379.094208,872.959106 333.946503,873.108704 
	C281.159302,873.283569 228.372833,873.650940 175.585892,873.905945 
	C166.833984,873.948242 166.561722,873.863281 167.081528,865.404541 
	C168.567749,841.219177 170.285339,817.047913 171.936386,792.872864 
	C172.331985,787.080261 172.822601,781.294128 173.694733,775.159912 
	C212.549515,797.416687 253.816589,812.186707 297.911316,818.554932 
	C327.292419,822.798279 356.801483,825.526917 385.972565,815.880676 
	C386.752136,817.005371 387.306763,817.838623 387.934784,818.612366 
	C395.567688,828.016602 404.235992,835.858398 416.697510,838.249146 
	C429.916351,840.785217 443.245453,840.560059 456.330811,838.325806 
	C466.513306,836.587097 476.580383,833.530518 486.322906,830.017334 
	C498.822784,825.509888 509.255890,817.220825 518.699341,808.179443 
	C526.971802,800.259277 535.777710,792.091980 536.313965,779.194580 
	C536.391724,777.324646 536.786194,775.467896 537.412415,773.709839 
	C541.982361,774.858948 546.133118,776.122925 550.372498,776.909607 
	C569.145813,780.393372 587.823730,778.206543 606.519653,775.891418 
	C634.866333,772.381287 662.085876,765.160645 686.868652,750.631958 
	C701.185913,742.238586 714.918274,732.847534 728.913879,723.905518 
M574.941528,845.107178 
	C574.960571,844.283997 575.211243,843.377258 574.950623,842.655029 
	C574.398071,841.123779 573.579102,839.688660 572.869324,838.214172 
	C571.605469,839.106079 569.757263,839.728271 569.195862,840.944458 
	C567.912476,843.724915 566.934204,846.750183 566.508911,849.771362 
	C566.339905,850.972046 567.697144,852.850342 568.878845,853.586304 
	C569.483215,853.962585 571.692078,852.804749 572.364014,851.798340 
	C573.521301,850.064880 574.044189,847.907837 574.941528,845.107178 
M643.883911,847.774048 
	C642.311707,847.357239 639.503845,846.328064 639.359558,846.619019 
	C638.008850,849.344482 636.780212,852.239014 636.272461,855.213745 
	C636.099365,856.227417 637.891846,858.308289 639.113831,858.620972 
	C640.315125,858.928345 642.894226,857.902771 643.183350,856.950562 
	C643.995544,854.275024 643.939453,851.335938 643.883911,847.774048 
M641.624878,805.512512 
	C647.502380,805.155701 648.278259,799.954407 650.263611,796.085999 
	C650.836365,794.970032 650.024475,793.143433 649.847351,791.642578 
	C648.384033,792.135193 646.071655,792.221924 645.607666,793.192322 
	C643.815491,796.941040 642.613037,800.971802 641.624878,805.512512 
z"/>
<path fill="#3C2D40" opacity="1.000000" stroke="none" 
	d="
M752.722290,351.220184 
	C724.977478,350.847839 697.315735,350.561462 669.710205,349.163544 
	C589.361023,345.094757 509.040680,340.457977 428.694519,336.326538 
	C408.073120,335.266205 387.397644,335.265656 366.748505,334.720917 
	C365.172302,334.679352 363.608185,334.179474 362.038452,333.892639 
	C362.048920,333.344360 362.059418,332.796112 362.069885,332.247833 
	C363.866272,332.003296 365.672333,331.489319 367.457611,331.553528 
	C412.400604,333.170349 457.361328,334.436981 502.278015,336.610382 
	C571.154053,339.943146 639.993469,344.025085 708.861938,347.523743 
	C726.815918,348.435852 744.819702,348.365753 763.152588,348.785767 
	C759.946716,349.482574 756.388855,350.140442 752.722290,351.220184 
z"/>
<path fill="#3D2D40" opacity="1.000000" stroke="none" 
	d="
M385.781708,815.561584 
	C356.801483,825.526917 327.292419,822.798279 297.911316,818.554932 
	C253.816589,812.186707 212.549515,797.416687 173.806839,774.686462 
	C173.580460,773.569702 173.667206,772.581238 173.903046,771.333130 
	C213.216675,794.191162 255.236008,809.287292 300.298065,815.622742 
	C322.427765,818.734070 344.653198,820.885986 366.922821,816.982849 
	C372.794281,815.953674 378.506348,814.014832 384.653931,812.741333 
	C385.322845,813.651855 385.629425,814.314758 385.889954,815.121704 
	C385.843933,815.265747 385.781708,815.561584 385.781708,815.561584 
z"/>
<path fill="#3E2D3F" opacity="1.000000" stroke="none" 
	d="
M729.059082,723.587463 
	C714.918274,732.847534 701.185913,742.238586 686.868652,750.631958 
	C662.085876,765.160645 634.866333,772.381287 606.519653,775.891418 
	C587.823730,778.206543 569.145813,780.393372 550.372498,776.909607 
	C546.133118,776.122925 541.982361,774.858948 537.389832,773.570129 
	C536.988892,773.325623 536.855469,773.071472 536.778931,772.763306 
	C536.447815,771.652893 536.193237,770.850525 535.938660,770.048218 
	C563.742615,779.073792 591.610596,774.803650 619.529297,770.631287 
	C652.741211,765.667725 682.088135,751.619690 709.548523,732.996521 
	C716.161560,728.511658 722.695740,723.910400 729.577759,719.258179 
	C729.661011,720.525696 729.432617,721.897522 729.059082,723.587463 
z"/>
<path fill="#518C7A" opacity="1.000000" stroke="none" 
	d="
M457.883881,672.079956 
	C450.048798,664.550720 442.213715,657.021545 434.193726,648.940430 
	C433.374969,647.314087 432.741119,646.239624 432.107239,645.165222 
	C428.213440,636.325439 424.472656,627.445312 424.932068,617.478516 
	C424.977478,616.493591 425.068878,615.510803 425.212921,613.487610 
	C440.239166,621.978882 449.565491,634.708008 457.770294,649.263123 
	C458.437500,650.606384 458.857666,651.413452 459.231018,652.581543 
	C460.886749,658.869995 462.589325,664.797424 463.889709,670.814331 
	C461.619659,671.295837 459.751770,671.687866 457.883881,672.079956 
z"/>
<path fill="#3D2D3D" opacity="1.000000" stroke="none" 
	d="
M516.029053,709.016724 
	C520.969971,704.945984 525.948120,700.919006 530.825745,696.773804 
	C532.054199,695.729919 533.972229,694.209778 533.862610,693.073730 
	C532.414246,678.071350 540.953003,669.774902 553.223022,664.292053 
	C582.614563,651.158569 613.428162,646.545410 645.421997,649.769348 
	C650.385620,650.269470 655.320190,651.094971 660.245361,651.908203 
	C661.316467,652.085083 662.289673,652.855347 663.307922,653.352356 
	C663.191833,653.874329 663.075745,654.396301 662.959656,654.918274 
	C661.002258,654.818054 659.012512,654.911011 657.092346,654.589050 
	C621.444824,648.610840 587.073547,652.831787 554.023438,667.481567 
	C542.105896,672.764160 536.205017,681.219177 537.053894,691.418335 
	C537.106689,692.052795 537.350769,692.671387 537.618225,693.750427 
	C558.703613,688.426575 579.487061,688.580505 599.895447,695.625366 
	C599.864929,696.334656 599.834351,697.043884 599.803772,697.753174 
	C598.134033,697.609375 596.395569,697.717346 594.805054,697.283203 
	C577.611938,692.590027 560.337524,691.837524 542.919434,695.925781 
	C533.199524,698.207214 525.070190,703.084351 518.245117,710.522644 
	C517.289001,709.922729 516.659058,709.469727 516.029053,709.016724 
z"/>
<path fill="#3D2D3E" opacity="1.000000" stroke="none" 
	d="
M412.131470,429.802795 
	C426.505341,439.499115 431.433350,454.800659 424.401093,471.201538 
	C415.696533,491.502502 399.311523,503.129913 378.102997,507.609406 
	C366.863800,509.983276 357.111481,503.813995 351.921783,492.881989 
	C346.255035,480.945129 347.537201,469.376068 353.455597,457.890259 
	C361.466400,442.343750 374.172974,432.584595 390.591644,427.417542 
	C397.883667,425.122742 405.062592,425.741180 412.131470,429.802795 
M394.660248,498.281342 
	C399.135254,495.115601 403.913330,492.297699 408.025055,488.715027 
	C417.974915,480.045380 424.230682,469.335327 424.001526,455.703125 
	C423.693420,437.376892 407.188843,425.443604 389.841797,431.096008 
	C378.505341,434.789917 368.708771,441.094879 361.711426,450.866943 
	C353.379608,462.502533 348.099915,474.975586 353.998535,489.598267 
	C358.848633,501.621735 368.586304,506.978149 381.111694,503.819244 
	C385.569061,502.695068 389.738892,500.430847 394.660248,498.281342 
z"/>
<path fill="#3D2C3F" opacity="1.000000" stroke="none" 
	d="
M633.055298,456.003479 
	C640.347595,470.872650 637.070251,484.301880 628.228149,496.680450 
	C620.299988,507.779602 609.458008,515.522156 596.681274,520.206116 
	C576.294128,527.680054 559.627930,516.739136 558.145020,494.977509 
	C557.089905,479.493011 564.159607,467.075867 574.927856,457.053864 
	C580.757202,451.628510 588.051514,447.307373 595.381653,444.061554 
	C610.881104,437.198303 623.417664,441.490753 633.055298,456.003479 
M564.688477,506.545593 
	C571.818054,518.881287 580.719360,522.439453 594.065430,517.731140 
	C606.746582,513.257324 617.480774,505.773224 625.570190,494.951721 
	C631.875549,486.516785 634.763367,477.013580 633.244873,466.325104 
	C631.412903,453.430511 617.238953,439.301575 600.351257,445.705414 
	C593.735962,448.213928 587.124146,451.400238 581.428650,455.540558 
	C564.276428,468.009399 557.601685,488.547333 564.688477,506.545593 
z"/>
<path fill="#3C2C3D" opacity="1.000000" stroke="none" 
	d="
M484.044739,479.300598 
	C483.888702,476.181396 483.764282,473.499512 483.639862,470.817627 
	C484.318207,470.718018 484.996582,470.618378 485.674957,470.518738 
	C486.038605,471.777710 486.549408,473.014557 486.742493,474.299164 
	C488.201996,484.009827 489.389832,493.767334 491.121124,503.428040 
	C491.791046,507.166168 490.389648,507.554688 487.327423,507.796539 
	C468.185913,509.308014 450.513062,515.696838 434.444397,525.831482 
	C428.797150,529.393311 423.660004,535.017578 420.409973,540.876221 
	C412.676331,554.817322 418.666687,568.874939 433.813629,574.005127 
	C454.529541,581.021545 475.419067,580.180725 496.306244,574.546082 
	C497.891907,574.118408 499.562683,574.006226 501.193909,573.747437 
	C501.358215,574.147339 501.522552,574.547180 501.686859,574.947083 
	C500.938416,575.616516 500.296265,576.645691 499.425964,576.902954 
	C476.823303,583.583130 454.079193,584.850525 431.700043,576.562683 
	C413.907318,569.973389 408.627350,552.184937 418.940063,536.155334 
	C426.172150,524.914185 437.330841,518.762329 449.343170,514.555969 
	C460.891388,510.512115 472.953217,507.934937 484.789459,504.713745 
	C485.569946,504.501343 486.351318,504.291992 487.389252,504.011841 
	C486.266754,495.787201 485.171570,487.762543 484.044739,479.300598 
z"/>
<path fill="#3D2E40" opacity="1.000000" stroke="none" 
	d="
M498.844696,395.739746 
	C465.638458,396.563904 433.538849,392.927277 402.286621,383.261353 
	C402.332489,382.591187 402.378357,381.921051 402.424194,381.250885 
	C404.131073,381.342255 405.924500,381.122772 407.532196,381.570374 
	C449.073059,393.137085 491.195892,395.662689 533.745911,389.024933 
	C547.031006,386.952484 560.061157,383.250671 573.213989,380.321503 
	C574.980042,379.928192 576.781250,379.692596 579.210571,379.272522 
	C575.508301,385.755981 535.575256,393.573914 498.844696,395.739746 
z"/>
<path fill="#3C2C3C" opacity="1.000000" stroke="none" 
	d="
M459.277863,652.220520 
	C458.857666,651.413452 458.437500,650.606384 458.076355,649.439331 
	C482.671509,649.244934 505.555450,642.610107 527.314026,631.817200 
	C552.601440,619.273926 576.854675,605.080017 597.315125,585.262329 
	C600.294617,582.376465 602.950500,579.126831 605.512634,575.854858 
	C606.494934,574.600464 606.795593,572.812256 607.406921,571.267273 
	C608.350952,572.054443 609.295044,572.841675 610.239075,573.628845 
	C609.469360,575.166199 608.927429,576.879944 607.894531,578.213501 
	C598.394226,590.478271 586.452454,600.009094 573.660645,608.584473 
	C550.204041,624.309387 525.955627,638.458069 497.931488,646.728271 
	C495.147461,647.608704 493.063934,648.293335 490.558289,648.949036 
	C479.850037,650.020203 469.563965,651.120361 459.277863,652.220520 
z"/>
<path fill="#3D2F41" opacity="1.000000" stroke="none" 
	d="
M412.999817,259.476624 
	C404.239502,259.476379 395.979187,259.476379 387.718872,259.476379 
	C392.547028,253.753036 540.324219,257.812531 546.542603,262.965332 
	C501.772461,261.791443 457.636139,260.634186 412.999817,259.476624 
z"/>
<path fill="#3E2C3C" opacity="1.000000" stroke="none" 
	d="
M397.094147,728.238708 
	C400.706390,717.343079 396.704193,709.177246 385.376312,706.911621 
	C375.142334,704.864807 364.634094,704.079224 354.212708,703.100403 
	C324.235779,700.284851 294.240448,697.665405 264.257843,694.909363 
	C262.885803,694.783264 261.567047,694.077454 260.223480,693.641663 
	C260.293915,693.120422 260.364319,692.599243 260.434723,692.078003 
	C261.775208,691.963745 263.134033,691.645935 264.453491,691.764832 
	C302.560425,695.197510 340.668182,698.623108 378.763153,702.184631 
	C386.714478,702.927979 394.144440,705.185120 399.614441,712.547913 
	C400.352325,717.315369 401.019287,721.514771 401.016479,725.713623 
	C401.015930,726.556152 398.467682,727.397034 397.094147,728.238708 
z"/>
<path fill="#3C2C3D" opacity="1.000000" stroke="none" 
	d="
M431.718811,645.139160 
	C432.741119,646.239624 433.374969,647.314087 433.950500,648.707397 
	C418.957428,645.624939 405.328217,639.215149 392.746002,630.635803 
	C375.114227,618.613403 361.126404,603.184082 350.851624,584.452087 
	C350.106995,583.094666 349.846313,581.471863 350.208588,579.334778 
	C369.188721,611.519104 395.153717,634.647217 431.718811,645.139160 
z"/>
<path fill="#502631" opacity="1.000000" stroke="none" 
	d="
M385.936005,814.977722 
	C385.629425,814.314758 385.322845,813.651855 385.018799,812.694641 
	C390.506500,809.629944 396.452606,807.487183 401.337524,803.899536 
	C405.595337,800.772461 409.630432,796.517639 412.027374,791.866272 
	C416.059906,784.040833 412.734833,777.129517 404.331848,773.074463 
	C403.966553,770.803894 403.921783,769.150818 403.876984,767.497742 
	C404.266479,767.187012 404.633942,766.842834 405.048767,766.570679 
	C410.455292,763.024048 414.995544,758.685181 413.778076,751.603088 
	C412.547150,744.442932 407.187286,740.755615 400.656708,738.595520 
	C399.711945,738.283081 398.716827,738.122803 397.381042,737.423523 
	C397.074310,736.261414 397.131592,735.567871 397.579590,734.858276 
	C400.227936,735.306030 402.485565,735.769836 404.774231,736.219482 
	C404.805267,736.205322 404.856537,736.164246 405.023926,736.422485 
	C405.771637,736.842163 406.351898,737.003723 406.957214,737.109985 
	C406.982269,737.054810 406.885925,737.128418 407.051697,737.418701 
	C410.077209,740.339600 412.936890,742.970215 415.738953,745.684082 
	C415.681274,745.767395 415.776733,745.946045 415.832886,746.341797 
	C416.383850,748.776855 416.878662,750.816162 417.327820,753.230591 
	C417.305939,754.107849 417.329712,754.609924 417.235107,755.468384 
	C413.873993,760.931641 410.631256,766.038513 407.397827,771.130798 
	C417.623474,776.885681 420.312164,787.144043 412.770203,797.760925 
	C409.689697,802.097412 404.930634,805.241577 400.952148,808.915283 
	C400.969116,808.902344 400.925385,808.898743 400.592041,808.907471 
	C399.152496,809.598145 398.046265,810.280090 396.957062,810.962646 
	C396.974060,810.963196 396.950958,810.927979 396.587646,810.956726 
	C392.794891,812.316223 389.365448,813.646973 385.936005,814.977722 
z"/>
<path fill="#DA835A" opacity="1.000000" stroke="none" 
	d="
M404.743164,736.233643 
	C402.485565,735.769836 400.227936,735.306030 397.558777,734.866333 
	C397.147217,734.890381 397.105865,734.904785 397.010559,734.624329 
	C396.540161,733.158691 396.165070,731.973572 395.789978,730.788391 
	C396.018616,730.016663 396.247223,729.244995 396.784973,728.355957 
	C398.467682,727.397034 401.015930,726.556152 401.016479,725.713623 
	C401.019287,721.514771 400.352325,717.315369 399.900299,712.745361 
	C400.888489,710.546936 401.597809,708.449097 402.959442,706.939758 
	C408.255768,701.069275 413.906952,695.516541 419.147491,689.598877 
	C425.518738,682.404358 433.026062,676.646729 442.021851,673.642822 
	C446.710419,672.077087 452.205444,672.926453 457.610046,672.382446 
	C459.751770,671.687866 461.619659,671.295837 464.139954,670.874756 
	C465.136810,670.808899 465.481293,670.772034 466.266724,670.829895 
	C468.751709,670.978577 470.795776,671.032471 473.030945,671.347656 
	C474.131042,672.102539 475.039978,672.596252 475.677795,673.362793 
	C471.488403,673.509583 467.530792,672.978577 463.661285,673.354492 
	C458.167145,673.888062 452.625702,674.676941 447.312866,676.122620 
	C442.165283,677.523254 436.737823,679.098816 432.427460,682.049744 
	C427.693390,685.290527 424.107758,690.202759 419.998535,694.363831 
	C414.480225,699.951782 408.774506,705.370117 403.551392,711.220398 
	C402.535278,712.358582 403.143097,715.168884 403.402679,717.155518 
	C403.622070,718.834595 405.391327,721.242981 404.808472,721.944763 
	C400.850769,726.710022 402.728363,731.166199 404.825470,735.748840 
	C404.881836,735.872070 404.774292,736.070374 404.743164,736.233643 
z"/>
<path fill="#3D2C3F" opacity="1.000000" stroke="none" 
	d="
M403.508179,767.618408 
	C403.921783,769.150818 403.966553,770.803894 404.022827,772.859375 
	C400.774628,773.740540 397.420654,773.879761 394.270935,774.754517 
	C377.047821,779.537842 359.450439,779.797180 341.787628,779.377686 
	C340.801453,779.354309 339.827820,778.804810 338.848358,778.500244 
	C338.825012,777.979736 338.801666,777.459229 338.778320,776.938721 
	C340.652863,776.684509 342.529938,776.193420 344.401611,776.213318 
	C360.062927,776.379272 375.707672,776.305237 390.956238,772.068848 
	C395.098572,770.918091 399.082672,769.197937 403.508179,767.618408 
z"/>
<path fill="#3D2C3F" opacity="1.000000" stroke="none" 
	d="
M397.168030,734.882324 
	C397.131592,735.567871 397.074310,736.261414 397.021484,737.302856 
	C380.699432,739.622620 364.371460,741.582153 348.047638,743.575806 
	C344.497528,744.009399 340.962341,744.565186 337.420288,745.064697 
	C337.218048,744.495911 337.015839,743.927063 336.813599,743.358276 
	C338.120300,742.693970 339.364868,741.649597 340.743286,741.424194 
	C354.380280,739.194885 368.053101,737.183594 381.683685,734.917297 
	C385.588684,734.268005 389.389557,732.992432 393.879211,732.162476 
	C395.382111,733.182190 396.243988,734.043518 397.105865,734.904785 
	C397.105865,734.904785 397.147217,734.890381 397.168030,734.882324 
z"/>
<path fill="#DA835A" opacity="1.000000" stroke="none" 
	d="
M496.964630,672.036194 
	C503.720673,674.359436 506.225433,679.216064 507.050110,686.208862 
	C507.804108,692.602112 510.392975,698.775818 512.129150,705.058411 
	C512.648865,706.939209 513.020203,708.861084 513.700439,711.360718 
	C513.694641,712.994934 513.447998,714.032471 513.099731,715.468384 
	C513.032349,717.231689 513.066528,718.596741 513.059998,720.341553 
	C513.014954,721.484497 513.010620,722.247620 512.711792,722.728149 
	C511.401184,717.844727 510.458252,713.226379 509.352142,708.647339 
	C507.625092,701.497742 505.530762,694.427307 504.061157,687.227539 
	C502.182007,678.021484 497.512268,670.336426 484.919525,675.397644 
	C482.480591,676.377930 479.279999,677.420776 478.017090,673.184875 
	C477.989471,673.064941 477.968384,672.819641 478.391052,672.901367 
	C480.242126,672.950134 481.670532,672.917114 483.422302,672.930481 
	C484.508362,672.679504 485.270966,672.382141 486.059021,672.088074 
	C486.084503,672.091431 486.133575,672.106750 486.583038,672.120178 
	C490.343201,672.101135 493.653931,672.068665 496.964630,672.036194 
z"/>
<path fill="#3A2A41" opacity="1.000000" stroke="none" 
	d="
M524.055298,732.863770 
	C525.622925,732.899231 527.383789,733.424683 528.728516,732.894653 
	C542.820251,727.339600 557.516479,726.473145 572.401428,727.040710 
	C573.774780,727.093140 575.120667,727.864685 576.479309,728.302246 
	C576.394714,728.893188 576.310120,729.484070 576.225525,730.075012 
	C574.577942,730.075012 572.919067,729.948486 571.284668,730.095520 
	C560.224731,731.089905 549.052673,731.490906 538.162903,733.450745 
	C532.722961,734.429749 527.801697,738.291138 522.327515,740.606689 
	C522.003235,739.571899 521.997375,738.779114 522.263550,737.771362 
	C523.042114,735.992188 523.548706,734.427979 524.055298,732.863770 
z"/>
<path fill="#BFBAB4" opacity="1.000000" stroke="none" 
	d="
M496.973938,671.588440 
	C493.653931,672.068665 490.343201,672.101135 486.539825,671.705688 
	C485.863770,669.912415 485.680420,668.547058 485.497040,667.181641 
	C484.931793,666.869080 484.366547,666.556519 483.801300,666.243958 
	C481.856995,668.435852 479.912689,670.627747 477.968384,672.819641 
	C477.968384,672.819641 477.989471,673.064941 477.674805,673.091675 
	C476.889740,673.108887 476.419312,673.099365 475.948914,673.089905 
	C475.039978,672.596252 474.131042,672.102539 473.276947,671.087891 
	C481.029694,666.246704 488.340454,661.501099 492.080750,652.979370 
	C492.755615,651.441772 494.312225,649.493896 490.991791,648.985168 
	C490.997253,648.993774 490.980438,648.977966 490.980438,648.977966 
	C493.063934,648.293335 495.147461,647.608704 497.612732,646.924072 
	C497.555603,649.808960 497.342377,652.755615 496.577942,655.551514 
	C496.221985,656.853455 494.876404,657.942017 493.837646,658.986206 
	C492.337830,660.493896 490.709106,661.873291 489.135376,663.307373 
	C490.996796,663.886353 492.855988,664.472778 494.721191,665.039307 
	C495.188446,665.181213 495.675140,665.259155 496.726105,665.495300 
	C496.808502,667.303772 496.895874,669.222229 496.973938,671.588440 
z"/>
<path fill="#4F252C" opacity="1.000000" stroke="none" 
	d="
M521.991516,737.986389 
	C521.997375,738.779114 522.003235,739.571899 522.018677,740.761719 
	C512.775146,753.244934 518.710693,761.614197 528.584229,766.535461 
	C530.811096,767.645325 533.105957,768.618958 535.654053,769.851807 
	C536.193237,770.850525 536.447815,771.652893 536.408752,772.751038 
	C531.206238,770.947327 526.297424,768.847717 521.364807,766.753967 
	C521.341003,766.759827 521.293091,766.769653 521.284424,766.473389 
	C520.847656,765.807556 520.419678,765.437866 519.990051,765.033752 
	C519.988464,764.999268 519.920654,765.012512 519.791321,764.713379 
	C518.167358,762.484924 516.672729,760.555725 515.155029,758.442871 
	C515.132019,758.259216 514.920837,757.955261 514.879761,757.560669 
	C512.574585,749.075928 515.773254,742.906982 521.763306,737.766846 
	C521.839050,737.840393 521.991516,737.986389 521.991516,737.986389 
z"/>
<path fill="#A99891" opacity="1.000000" stroke="none" 
	d="
M227.778671,609.203247 
	C226.120377,611.328369 224.587997,613.057129 223.055634,614.785889 
	C221.710999,612.339478 219.522842,609.987061 219.237228,607.422729 
	C218.887802,604.285400 219.665604,600.792480 220.813095,597.779846 
	C222.091934,594.422424 225.411484,594.296082 226.561981,597.631042 
	C227.758041,601.098083 227.517136,605.060852 227.778671,609.203247 
z"/>
<path fill="#A99891" opacity="1.000000" stroke="none" 
	d="
M274.063782,432.514893 
	C272.866119,427.965607 273.055237,423.928955 275.469452,420.250793 
	C277.306854,417.451477 279.872437,417.708344 280.501099,420.657043 
	C281.293304,424.372986 281.389313,428.528748 280.561462,432.220215 
	C279.654968,436.262360 276.823822,436.342316 274.063782,432.514893 
z"/>
<path fill="#A99891" opacity="1.000000" stroke="none" 
	d="
M684.974854,217.164734 
	C685.324951,215.309555 685.332214,213.651215 686.101196,212.503143 
	C687.176514,210.897919 688.819885,209.673218 690.220215,208.285721 
	C691.141235,209.915527 692.392883,211.452759 692.882812,213.203201 
	C693.304749,214.710754 693.373047,216.738297 692.673401,218.038605 
	C691.661316,219.919662 689.998779,222.462814 688.286804,222.745804 
	C684.656067,223.345947 685.031250,220.043518 684.974854,217.164734 
z"/>
<path fill="#A99891" opacity="1.000000" stroke="none" 
	d="
M695.988159,433.955872 
	C696.676147,431.015198 697.093994,428.362274 698.178406,426.017517 
	C698.627563,425.046265 700.525940,424.241272 701.722107,424.296448 
	C702.520813,424.333313 703.886902,426.027466 703.878235,426.969574 
	C703.852783,429.716003 703.658813,432.598083 702.748962,435.147949 
	C702.200500,436.684723 700.195435,437.701691 698.844910,438.952271 
	C697.892151,437.424164 696.939453,435.896027 695.988159,433.955872 
z"/>
<path fill="#A99891" opacity="1.000000" stroke="none" 
	d="
M697.274841,565.718689 
	C699.312988,563.652100 701.216003,561.964844 703.119141,560.277649 
	C703.653870,562.954834 705.022583,565.815918 704.484375,568.256409 
	C703.966003,570.606628 701.066772,574.512024 699.925842,574.276917 
	C695.491394,573.363525 697.325989,569.170166 697.274841,565.718689 
z"/>
<path fill="#A99891" opacity="1.000000" stroke="none" 
	d="
M271.022797,551.082520 
	C274.066284,553.691223 273.633270,562.996948 270.544067,564.402710 
	C269.525574,564.866211 267.108124,564.199097 266.502563,563.278137 
	C264.295166,559.921326 266.714386,553.355652 271.022797,551.082520 
z"/>
<path fill="#A99891" opacity="1.000000" stroke="none" 
	d="
M322.013794,372.632385 
	C321.136230,375.008301 320.486755,377.114014 319.319946,378.877441 
	C318.759399,379.724670 316.948242,380.572723 316.195679,380.254822 
	C315.255768,379.857880 314.158081,378.164154 314.297607,377.199371 
	C314.694916,374.451813 315.429871,371.676849 316.551849,369.142883 
	C317.102936,367.898285 318.804321,367.163055 319.985138,366.197327 
	C320.669434,367.539703 321.434052,368.849457 321.999207,370.240234 
	C322.230957,370.810577 322.032227,371.555847 322.013794,372.632385 
z"/>
<path fill="#A99891" opacity="1.000000" stroke="none" 
	d="
M649.522339,169.734802 
	C650.150146,176.847427 647.565063,181.874969 642.549133,183.610092 
	C640.868103,178.790924 642.716858,174.620819 645.082092,170.754395 
	C645.661316,169.807556 647.840332,169.839417 649.522339,169.734802 
z"/>
<path fill="#A99891" opacity="1.000000" stroke="none" 
	d="
M278.751221,628.000610 
	C277.092499,623.253296 279.538788,620.067261 282.395233,617.329773 
	C283.076935,616.676453 286.087708,617.043457 286.550476,617.820679 
	C288.356506,620.853516 282.653442,628.499939 278.751221,628.000610 
z"/>
<path fill="#A99891" opacity="1.000000" stroke="none" 
	d="
M637.783936,234.441132 
	C636.110474,235.987061 634.614258,237.187408 633.117981,238.387772 
	C632.760132,236.365005 632.398010,234.342972 632.053223,232.317978 
	C632.027893,232.169006 632.078430,231.953323 632.177368,231.845016 
	C633.921326,229.935272 635.678345,228.037415 637.432556,226.137024 
	C637.608704,228.789871 637.784851,231.442734 637.783936,234.441132 
z"/>
<path fill="#502631" opacity="1.000000" stroke="none" 
	d="
M513.201355,715.070007 
	C513.447998,714.032471 513.694641,712.994934 513.985901,711.644775 
	C514.526978,710.673401 515.023499,710.014526 515.774536,709.186218 
	C516.659058,709.469727 517.289001,709.922729 517.959778,710.694458 
	C517.365723,714.062988 516.730957,717.112793 515.800049,720.747925 
	C514.913513,721.929199 514.323059,722.525146 513.548828,723.088196 
	C513.364929,723.055359 512.996704,722.985474 512.995972,722.992554 
	C512.995178,722.999573 513.006348,723.010742 513.006348,723.010742 
	C513.010620,722.247620 513.014954,721.484497 513.308105,720.111694 
	C513.465027,718.024658 513.333191,716.547302 513.201355,715.070007 
z"/>
<path fill="#4F252C" opacity="1.000000" stroke="none" 
	d="
M523.920898,732.618958 
	C523.548706,734.427979 523.042114,735.992188 522.263550,737.771362 
	C521.991516,737.986389 521.839050,737.840393 521.903442,737.435120 
	C520.348206,734.684692 518.728577,732.339539 517.479797,730.041382 
	C519.061340,730.339722 520.272034,730.591003 521.482788,730.842285 
	C522.250732,731.352905 523.018677,731.863525 523.920898,732.618958 
z"/>
<path fill="#502631" opacity="1.000000" stroke="none" 
	d="
M521.298340,730.541382 
	C520.272034,730.591003 519.061340,730.339722 517.366638,729.919800 
	C516.882690,729.751099 516.792480,729.431824 516.844482,729.060486 
	C516.906799,727.133362 516.917053,725.577515 516.927368,724.021729 
	C518.322876,726.094666 519.718445,728.167542 521.298340,730.541382 
z"/>
<path fill="#4F252C" opacity="1.000000" stroke="none" 
	d="
M516.916077,723.701050 
	C516.917053,725.577515 516.906799,727.133362 516.593628,728.850037 
	C515.547241,727.979248 514.803833,726.947571 514.040649,725.949646 
	C514.020935,725.983398 514.098816,725.976440 514.079590,725.616211 
	C513.951172,724.544312 513.841919,723.832642 513.732666,723.121033 
	C514.323059,722.525146 514.913513,721.929199 515.772339,721.158752 
	C516.328735,721.782959 516.616760,722.581665 516.916077,723.701050 
z"/>
<path fill="#502631" opacity="1.000000" stroke="none" 
	d="
M397.010559,734.624329 
	C396.243988,734.043518 395.382111,733.182190 394.269928,732.136108 
	C394.423859,731.583740 394.828094,731.216125 395.511169,730.818481 
	C396.165070,731.973572 396.540161,733.158691 397.010559,734.624329 
z"/>
<path fill="#DA835A" opacity="1.000000" stroke="none" 
	d="
M521.388611,766.748108 
	C526.297424,768.847717 531.206238,770.947327 536.485229,773.059204 
	C536.855469,773.071472 536.988892,773.325623 537.011475,773.465332 
	C536.786194,775.467896 536.391724,777.324646 536.313965,779.194580 
	C535.777710,792.091980 526.971802,800.259277 518.699341,808.179443 
	C509.255890,817.220825 498.822784,825.509888 486.322906,830.017334 
	C476.580383,833.530518 466.513306,836.587097 456.330811,838.325806 
	C443.245453,840.560059 429.916351,840.785217 416.697510,838.249146 
	C404.235992,835.858398 395.567688,828.016602 387.934784,818.612366 
	C387.306763,817.838623 386.752136,817.005371 385.972565,815.880676 
	C385.781708,815.561584 385.843933,815.265747 385.889954,815.121704 
	C389.365448,813.646973 392.794891,812.316223 396.566071,811.308350 
	C396.361633,812.215759 395.889191,812.899475 395.257660,813.369324 
	C389.876923,817.372498 389.551392,818.577881 394.759521,823.070435 
	C398.793701,826.550293 403.336426,829.648254 408.093170,832.041077 
	C419.200287,837.628479 431.317261,838.421936 443.467102,837.786682 
	C448.365356,837.530518 453.211548,835.107910 458.054474,835.193726 
	C470.363770,835.411804 480.391479,829.180664 490.934296,824.517029 
	C497.430969,821.643311 503.344635,817.805603 508.269714,812.188904 
	C513.872986,805.798584 520.975647,800.742493 526.800415,794.520264 
	C531.278748,789.736267 533.893005,783.674927 532.913086,776.816101 
	C532.734314,775.565125 531.158203,774.377869 530.006592,773.428833 
	C527.202820,771.118286 524.269653,768.964844 521.388611,766.748108 
z"/>
<path fill="#A99891" opacity="1.000000" stroke="none" 
	d="
M574.887451,845.517822 
	C574.044189,847.907837 573.521301,850.064880 572.364014,851.798340 
	C571.692078,852.804749 569.483215,853.962585 568.878845,853.586304 
	C567.697144,852.850342 566.339905,850.972046 566.508911,849.771362 
	C566.934204,846.750183 567.912476,843.724915 569.195862,840.944458 
	C569.757263,839.728271 571.605469,839.106079 572.869324,838.214172 
	C573.579102,839.688660 574.398071,841.123779 574.950623,842.655029 
	C575.211243,843.377258 574.960571,844.283997 574.887451,845.517822 
z"/>
<path fill="#A99891" opacity="1.000000" stroke="none" 
	d="
M644.054871,848.137451 
	C643.939453,851.335938 643.995544,854.275024 643.183350,856.950562 
	C642.894226,857.902771 640.315125,858.928345 639.113831,858.620972 
	C637.891846,858.308289 636.099365,856.227417 636.272461,855.213745 
	C636.780212,852.239014 638.008850,849.344482 639.359558,846.619019 
	C639.503845,846.328064 642.311707,847.357239 644.054871,848.137451 
z"/>
<path fill="#A99891" opacity="1.000000" stroke="none" 
	d="
M641.407837,805.204956 
	C642.613037,800.971802 643.815491,796.941040 645.607666,793.192322 
	C646.071655,792.221924 648.384033,792.135193 649.847351,791.642578 
	C650.024475,793.143433 650.836365,794.970032 650.263611,796.085999 
	C648.278259,799.954407 647.502380,805.155701 641.407837,805.204956 
z"/>
<path fill="#BFBAB4" opacity="1.000000" stroke="none" 
	d="
M465.825775,670.735107 
	C465.481293,670.772034 465.136810,670.808899 464.542114,670.785278 
	C462.589325,664.797424 460.886749,658.869995 459.231018,652.581543 
	C469.563965,651.120361 479.850037,650.020203 490.558289,648.949036 
	C490.980438,648.977966 490.997253,648.993774 490.852539,649.307129 
	C489.067169,650.372681 487.389954,651.054749 485.792053,651.888794 
	C477.365723,656.287048 469.812531,661.626648 465.825775,670.735107 
z"/>
<path fill="#CABBB5" opacity="1.000000" stroke="none" 
	d="
M394.350098,498.484192 
	C389.738892,500.430847 385.569061,502.695068 381.111694,503.819244 
	C368.586304,506.978149 358.848633,501.621735 353.998535,489.598267 
	C348.099915,474.975586 353.379608,462.502533 361.711426,450.866943 
	C368.708771,441.094879 378.505341,434.789917 389.841797,431.096008 
	C407.188843,425.443604 423.693420,437.376892 424.001526,455.703125 
	C424.230682,469.335327 417.974915,480.045380 408.025055,488.715027 
	C403.913330,492.297699 399.135254,495.115601 394.350098,498.484192 
z"/>
<path fill="#CABBB5" opacity="1.000000" stroke="none" 
	d="
M564.488098,506.218262 
	C557.601685,488.547333 564.276428,468.009399 581.428650,455.540558 
	C587.124146,451.400238 593.735962,448.213928 600.351257,445.705414 
	C617.238953,439.301575 631.412903,453.430511 633.244873,466.325104 
	C634.763367,477.013580 631.875549,486.516785 625.570190,494.951721 
	C617.480774,505.773224 606.746582,513.257324 594.065430,517.731140 
	C580.719360,522.439453 571.818054,518.881287 564.488098,506.218262 
z"/>
<path fill="#F5783C" opacity="1.000000" stroke="none" 
	d="
M521.364807,766.753967 
	C524.269653,768.964844 527.202820,771.118286 530.006592,773.428833 
	C531.158203,774.377869 532.734314,775.565125 532.913086,776.816101 
	C533.893005,783.674927 531.278748,789.736267 526.800415,794.520264 
	C520.975647,800.742493 513.872986,805.798584 508.269714,812.188904 
	C503.344635,817.805603 497.430969,821.643311 490.934296,824.517029 
	C480.391479,829.180664 470.363770,835.411804 458.054474,835.193726 
	C453.211548,835.107910 448.365356,837.530518 443.467102,837.786682 
	C431.317261,838.421936 419.200287,837.628479 408.093170,832.041077 
	C403.336426,829.648254 398.793701,826.550293 394.759521,823.070435 
	C389.551392,818.577881 389.876923,817.372498 395.257660,813.369324 
	C395.889191,812.899475 396.361633,812.215759 396.929382,811.279602 
	C396.950958,810.927979 396.974060,810.963196 397.342407,810.984619 
	C398.782288,810.303650 399.853821,809.601196 400.925385,808.898743 
	C400.925385,808.898743 400.969116,808.902344 401.363129,808.946411 
	C410.756348,808.540710 414.289215,801.238403 416.683746,794.793823 
	C419.828644,786.329529 419.592224,777.208923 412.013947,770.410706 
	C418.371490,759.863220 418.371490,759.863220 417.353485,755.112061 
	C417.329712,754.609924 417.305939,754.107849 417.528442,752.929688 
	C417.509338,750.024292 419.608093,747.045959 415.776733,745.946045 
	C415.776733,745.946045 415.681274,745.767395 415.773560,745.282837 
	C414.112396,740.790039 412.787415,736.280090 406.885925,737.128418 
	C406.885925,737.128418 406.982269,737.054810 406.815674,736.821350 
	C406.051575,736.446716 405.454071,736.305481 404.856537,736.164246 
	C404.856537,736.164246 404.805267,736.205322 404.774231,736.219482 
	C404.774292,736.070374 404.881836,735.872070 404.825470,735.748840 
	C402.728363,731.166199 400.850769,726.710022 404.808472,721.944763 
	C405.391327,721.242981 403.622070,718.834595 403.402679,717.155518 
	C403.143097,715.168884 402.535278,712.358582 403.551392,711.220398 
	C408.774506,705.370117 414.480225,699.951782 419.998535,694.363831 
	C424.107758,690.202759 427.693390,685.290527 432.427460,682.049744 
	C436.737823,679.098816 442.165283,677.523254 447.312866,676.122620 
	C452.625702,674.676941 458.167145,673.888062 463.661285,673.354492 
	C467.530792,672.978577 471.488403,673.509583 475.677795,673.362793 
	C476.419312,673.099365 476.889740,673.108887 477.702393,673.211548 
	C479.279999,677.420776 482.480591,676.377930 484.919525,675.397644 
	C497.512268,670.336426 502.182007,678.021484 504.061157,687.227539 
	C505.530762,694.427307 507.625092,701.497742 509.352142,708.647339 
	C510.458252,713.226379 511.401184,717.844727 512.711792,722.728149 
	C513.006348,723.010742 512.995178,722.999573 512.981689,723.339600 
	C513.345032,724.445251 513.721924,725.210815 514.098816,725.976440 
	C514.098816,725.976440 514.020935,725.983398 514.019653,726.343140 
	C515.209412,728.912903 516.492676,731.079834 517.554260,733.350342 
	C518.116516,734.552979 518.948669,736.219299 518.529541,737.187195 
	C516.831970,741.107117 514.331665,744.700378 512.836304,748.680420 
	C511.627075,751.899109 510.449707,755.731506 514.920837,757.955261 
	C514.920837,757.955261 515.132019,758.259216 515.104004,758.802856 
	C514.356323,761.262085 513.636597,763.177734 512.788757,765.434387 
	C515.716064,765.261230 517.818359,765.136841 519.920654,765.012512 
	C519.920654,765.012512 519.988464,764.999268 520.018311,765.336670 
	C520.463196,766.039185 520.878174,766.404419 521.293091,766.769653 
	C521.293091,766.769653 521.341003,766.759827 521.364807,766.753967 
z"/>
<path fill="#DA835A" opacity="1.000000" stroke="none" 
	d="
M417.235107,755.468384 
	C418.371490,759.863220 418.371490,759.863220 412.013947,770.410706 
	C419.592224,777.208923 419.828644,786.329529 416.683746,794.793823 
	C414.289215,801.238403 410.756348,808.540710 401.346191,808.959351 
	C404.930634,805.241577 409.689697,802.097412 412.770203,797.760925 
	C420.312164,787.144043 417.623474,776.885681 407.397827,771.130798 
	C410.631256,766.038513 413.873993,760.931641 417.235107,755.468384 
z"/>
<path fill="#DA835A" opacity="1.000000" stroke="none" 
	d="
M407.051697,737.418701 
	C412.787415,736.280090 414.112396,740.790039 415.831238,745.199524 
	C412.936890,742.970215 410.077209,740.339600 407.051697,737.418701 
z"/>
<path fill="#DA835A" opacity="1.000000" stroke="none" 
	d="
M415.832886,746.341797 
	C419.608093,747.045959 417.509338,750.024292 417.574097,752.554565 
	C416.878662,750.816162 416.383850,748.776855 415.832886,746.341797 
z"/>
<path fill="#DA835A" opacity="1.000000" stroke="none" 
	d="
M400.592041,808.907471 
	C399.853821,809.601196 398.782288,810.303650 397.325409,810.984070 
	C398.046265,810.280090 399.152496,809.598145 400.592041,808.907471 
z"/>
<path fill="#DA835A" opacity="1.000000" stroke="none" 
	d="
M405.023926,736.422485 
	C405.454071,736.305481 406.051575,736.446716 406.790649,736.876587 
	C406.351898,737.003723 405.771637,736.842163 405.023926,736.422485 
z"/>
<path fill="#598B79" opacity="1.000000" stroke="none" 
	d="
M466.266724,670.829895 
	C469.812531,661.626648 477.365723,656.287048 485.792053,651.888794 
	C487.389954,651.054749 489.067169,650.372681 490.847046,649.298523 
	C494.312225,649.493896 492.755615,651.441772 492.080750,652.979370 
	C488.340454,661.501099 481.029694,666.246704 473.085815,670.826660 
	C470.795776,671.032471 468.751709,670.978577 466.266724,670.829895 
z"/>
<path fill="#CBBCB5" opacity="1.000000" stroke="none" 
	d="
M478.391083,672.901367 
	C479.912689,670.627747 481.856995,668.435852 483.801300,666.243958 
	C484.366547,666.556519 484.931793,666.869080 485.497040,667.181641 
	C485.680420,668.547058 485.863770,669.912415 486.090363,671.692261 
	C486.133575,672.106750 486.084503,672.091431 485.731598,672.066040 
	C484.618774,672.321777 483.858856,672.602966 483.098907,672.884094 
	C481.670532,672.917114 480.242126,672.950134 478.391083,672.901367 
z"/>
<path fill="#4F252C" opacity="1.000000" stroke="none" 
	d="
M513.099731,715.468384 
	C513.333191,716.547302 513.465027,718.024658 513.348755,719.731812 
	C513.066528,718.596741 513.032349,717.231689 513.099731,715.468384 
z"/>
<path fill="#BFBAB4" opacity="1.000000" stroke="none" 
	d="
M483.422302,672.930481 
	C483.858856,672.602966 484.618774,672.321777 485.706116,672.062622 
	C485.270966,672.382141 484.508362,672.679504 483.422302,672.930481 
z"/>
<path fill="#DA835A" opacity="1.000000" stroke="none" 
	d="
M514.879761,757.560669 
	C510.449707,755.731506 511.627075,751.899109 512.836304,748.680420 
	C514.331665,744.700378 516.831970,741.107117 518.529541,737.187195 
	C518.948669,736.219299 518.116516,734.552979 517.554260,733.350342 
	C516.492676,731.079834 515.209412,728.912903 514.039368,726.309448 
	C514.803833,726.947571 515.547241,727.979248 516.541626,729.221375 
	C516.792480,729.431824 516.882690,729.751099 516.995850,729.872742 
	C518.728577,732.339539 520.348206,734.684692 521.827698,737.361572 
	C515.773254,742.906982 512.574585,749.075928 514.879761,757.560669 
z"/>
<path fill="#DA835A" opacity="1.000000" stroke="none" 
	d="
M519.791321,764.713379 
	C517.818359,765.136841 515.716064,765.261230 512.788757,765.434387 
	C513.636597,763.177734 514.356323,761.262085 515.127075,758.986450 
	C516.672729,760.555725 518.167358,762.484924 519.791321,764.713379 
z"/>
<path fill="#DA835A" opacity="1.000000" stroke="none" 
	d="
M521.284424,766.473389 
	C520.878174,766.404419 520.463196,766.039185 520.019897,765.371094 
	C520.419678,765.437866 520.847656,765.807556 521.284424,766.473389 
z"/>
<path fill="#DA835A" opacity="1.000000" stroke="none" 
	d="
M514.079590,725.616211 
	C513.721924,725.210815 513.345032,724.445251 512.982422,723.332520 
	C512.996704,722.985474 513.364929,723.055359 513.548828,723.088196 
	C513.841919,723.832642 513.951172,724.544312 514.079590,725.616211 
z"/>
</svg>